<svg width="24" height="28" viewBox="0 0 24 28" fill="none" xmlns="http://www.w3.org/2000/svg">
<g id="Group 957">
<path id="Vector" d="M11.7893 27.7484C11.3287 27.7484 10.8024 27.6859 10.3419 27.4984C4.42085 25.4984 0.144531 19.3109 0.144531 12.8734V7.81092C0.144531 6.24841 1.13137 4.81091 2.64453 4.12341L10.013 0.873413C11.1314 0.373413 12.4472 0.373413 13.6314 0.873413L20.9998 4.12341C22.513 4.81091 23.4998 6.24841 23.4998 7.81092V12.8734C23.4998 19.3734 19.2235 25.4984 13.3024 27.5609C12.7761 27.6859 12.3156 27.7484 11.7893 27.7484V27.7484ZM10.8024 2.56091L3.434 5.81091C2.64453 6.18591 2.11822 6.93591 2.11822 7.81092V12.8734C2.11822 18.5609 5.86821 23.9984 10.9998 25.8109C11.4603 25.9984 11.9866 25.9984 12.513 25.8109C17.7103 23.9984 21.4603 18.5609 21.4603 12.8734V7.81092C21.4603 6.93591 20.934 6.18591 20.1445 5.81091L12.7761 2.56091C12.1182 2.31091 11.4603 2.31091 10.8024 2.56091Z" fill="currentColor"/>
<path id="Vector_2" d="M11.7896 12.4984C11.5264 12.4984 11.2633 12.3734 11.0659 12.2484L7.77643 9.12341C7.3817 8.74841 7.44749 8.12341 7.84222 7.81091C8.23696 7.49841 8.82907 7.49841 9.15801 7.81091L12.4475 10.9359C12.8422 11.3109 12.8422 11.8734 12.4475 12.2484C12.3159 12.3734 12.0528 12.4984 11.7896 12.4984V12.4984Z" fill="currentColor"/>
<path id="Vector_3" d="M11.7896 12.4984C11.2633 12.4984 10.8027 12.0609 10.8027 11.5609C10.8027 11.3109 10.9343 11.0609 11.0659 10.8734L14.3554 7.7484C14.7501 7.3734 15.3422 7.3734 15.7369 7.6859C16.1317 7.9984 16.1317 8.6234 15.8027 8.9984C15.8027 8.9984 15.8027 9.0609 15.7369 9.0609L12.4475 12.1859C12.3159 12.3734 12.0527 12.4984 11.7896 12.4984V12.4984Z" fill="currentColor"/>
<path id="Vector_4" d="M17.6446 13.8734H5.93411C5.40779 13.8734 4.94727 13.4359 4.94727 12.9359C4.94727 12.4359 5.40779 11.9984 5.93411 11.9984H17.7104C18.2367 11.9984 18.6973 12.4359 18.6973 12.9359C18.6973 13.4359 18.2367 13.8734 17.6446 13.8734ZM17.6446 17.3734H5.93411C5.40779 17.3734 4.94727 16.9359 4.94727 16.4359C4.94727 15.9359 5.40779 15.4984 5.93411 15.4984H17.7104C18.2367 15.4984 18.6973 15.9359 18.6973 16.4359C18.6973 16.9359 18.2367 17.3734 17.6446 17.3734Z" fill="currentColor"/>
<path id="Vector_5" d="M11.7896 20.8734C11.2633 20.8734 10.8027 20.4359 10.8027 19.9359V11.5609C10.8027 11.0609 11.2633 10.6234 11.7896 10.6234C12.3159 10.6234 12.7764 11.0609 12.7764 11.5609V19.9359C12.7764 20.4359 12.3159 20.8734 11.7896 20.8734V20.8734Z" fill="currentColor"/>
</g>
</svg>
