<svg width="58" height="58" viewBox="0 0 58 58" fill="none" xmlns="http://www.w3.org/2000/svg">
<g id="Group 2231">
<rect id="Rectangle 1022" x="0.5" y="0.5" width="57" height="57" rx="5.5" fill="white" stroke="#EEEEEE"/>
<g id="01_&#229;&#148;&#174;&#229;&#144;&#142;&#231;&#174;&#161;&#231;&#144;&#134; 1">
<path id="Vector" d="M28.8683 42.8182H18.2083C16.5399 42.8182 16.2149 42.4499 16.3233 40.7599C16.5833 36.6649 20.1799 32.7865 24.5133 32.3749C27.4166 32.0932 30.4066 32.0932 33.3099 32.3749C37.7083 32.8082 41.2833 36.7732 41.4783 40.9332C41.5433 42.4282 41.2183 42.7965 39.7016 42.7965C36.0833 42.8399 32.4866 42.8182 28.8683 42.8182ZM36.3866 23.6899C36.2783 27.9365 32.8116 31.3815 28.7383 31.2732C27.7522 31.2496 26.7804 31.0319 25.8786 30.6324C24.9767 30.233 24.1624 29.6597 23.4823 28.9454C22.8021 28.231 22.2695 27.3896 21.9147 26.4692C21.56 25.5489 21.3902 24.5676 21.4149 23.5815C21.5016 19.4215 25.0549 16.1499 29.3883 16.2365C33.3749 16.3449 36.4733 19.6382 36.3866 23.6899Z" fill="#1AAFA6"/>
<path id="Vector_2" d="M37.73 24.0366C37.8383 18.9233 33.7 14.7416 28.7167 14.915C27.5039 14.9503 26.3112 15.2334 25.2119 15.7467C24.1126 16.26 23.1299 16.9928 22.3243 17.8999C21.5186 18.807 20.907 19.8694 20.5271 21.0216C20.1472 22.1738 20.0069 23.3916 20.115 24.6C20.1583 25.055 19.9633 25.5533 19.8767 26.0083C19.3567 25.9 18.75 25.9 18.295 25.64C16.865 24.7733 16.735 22.8233 17.905 21.5883C18.3817 21.09 18.8367 20.5483 19.0967 19.92C20.7433 15.8683 24.6217 13.1816 28.9333 13.1816C33.2017 13.1816 37.015 15.8033 38.705 19.79C38.965 20.3966 39.5933 20.83 39.8967 21.415C40.3083 22.2166 40.915 23.105 40.8067 23.9066C40.72 24.6216 39.9617 25.4666 39.2683 25.8783C38.2067 26.5066 37.6217 26.0083 37.6867 24.7733C37.7083 24.5133 37.7083 24.275 37.73 24.0366V24.0366Z" fill="#1AAFA6"/>
</g>
</g>
</svg>
