<svg width="27" height="27" viewBox="0 0 27 27" fill="none" xmlns="http://www.w3.org/2000/svg">
<g id="Group 2236">
<g id="&#229;&#156;&#176;&#229;&#155;&#190; 1">
<path id="Vector" d="M8.89024 7.31222C9.32355 6.02316 10.1748 4.91566 11.3091 4.16537C12.4433 3.41508 13.7956 3.06496 15.1515 3.17053C16.5073 3.2761 17.7891 3.83131 18.7935 4.74812C19.798 5.66493 20.4676 6.89085 20.6961 8.23145L22.2314 7.77033C22.5351 7.6792 22.8559 7.66032 23.1682 7.7152C23.4805 7.77007 23.7756 7.89718 24.03 8.08638C24.2845 8.27558 24.4911 8.52163 24.6336 8.8049C24.776 9.08818 24.8503 9.40082 24.8505 9.71789V21.1266C24.8505 21.5642 24.7094 21.9901 24.4481 22.3412C24.1869 22.6922 23.8194 22.9497 23.4002 23.0753L17.5864 24.8198C17.4591 24.8581 17.3232 24.8581 17.1958 24.8198L9.25371 22.8439L5.76968 24.2947C5.46614 24.3858 5.14551 24.4047 4.83336 24.35C4.52121 24.2952 4.22618 24.1682 3.97179 23.9792C3.71739 23.7902 3.51067 23.5444 3.3681 23.2614C3.22553 22.9783 3.15107 22.6659 3.15063 22.349V10.9385C3.15062 10.5009 3.29172 10.075 3.55297 9.7239C3.81423 9.37284 4.18173 9.11538 4.60091 8.98974L8.89024 7.31222ZM20.7649 9.62627C20.5547 11.8232 18.5254 14.6361 14.6769 18.0651C10.6093 14.4372 8.57559 11.4993 8.57559 9.25134C8.57559 9.12235 8.57981 8.99336 8.58764 8.86617L4.98969 10.2905C4.85065 10.3325 4.72875 10.418 4.64194 10.5344C4.55513 10.6508 4.508 10.7921 4.50748 10.9373V22.346C4.50741 22.4518 4.5321 22.5561 4.57957 22.6506C4.62703 22.7452 4.69595 22.8273 4.78083 22.8904C4.8657 22.9536 4.96417 22.996 5.06837 23.0143C5.17256 23.0326 5.27959 23.0262 5.38089 22.9958L9.05781 21.4852C9.18519 21.4469 9.32102 21.4469 9.4484 21.4852L17.3905 23.4611L23.0108 21.7733C23.1503 21.7312 23.2726 21.6453 23.3594 21.5283C23.4463 21.4112 23.4931 21.2693 23.493 21.1236V9.71789C23.493 9.61222 23.4682 9.50803 23.4207 9.41363C23.3733 9.31922 23.3044 9.23722 23.2196 9.17416C23.1348 9.1111 23.0365 9.06872 22.9324 9.05041C22.8283 9.0321 22.7214 9.03837 22.6202 9.0687L20.7624 9.62627H20.7649ZM19.4255 9.25134C19.4255 8.62798 19.3027 8.01072 19.0642 7.43481C18.8256 6.8589 18.476 6.33561 18.0352 5.89482C17.5944 5.45404 17.0711 5.10439 16.4952 4.86584C15.9193 4.62729 15.302 4.50451 14.6787 4.50451C14.0553 4.50451 13.438 4.62729 12.8621 4.86584C12.2862 5.10439 11.7629 5.45404 11.3221 5.89482C10.8814 6.33561 10.5317 6.8589 10.2932 7.43481C10.0546 8.01072 9.93183 8.62798 9.93183 9.25134C9.93183 10.8487 11.4876 13.2296 14.6787 16.229C17.8697 13.2296 19.4255 10.8493 19.4255 9.25134Z" fill="#FA4907"/>
</g>
</g>
</svg>
