<svg xmlns="http://www.w3.org/2000/svg" fill="none" viewBox="0 0 58 57" class="design-iconfont">
  <rect opacity=".1" width="57.6406" height="57" rx="10" fill="#FA5F1C"/>
  <path d="M33.2172 40.1273C32.5811 40.127 31.967 39.8944 31.4902 39.4733L27.0569 35.5678C26.4963 35.0697 26.4459 34.2117 26.9441 33.6512C27.4423 33.0907 28.3006 33.0403 28.8608 33.5385L33.1947 37.3534L40.0587 16.7439L16.9688 24.0095L24.2386 29.8722C24.4339 30.0174 24.5864 30.2127 24.6801 30.4373C24.7738 30.6619 24.8052 30.9077 24.771 31.1486C24.7367 31.3896 24.638 31.6168 24.4853 31.8064C24.3327 31.996 24.1317 32.1408 23.9036 32.2257C23.4388 32.3987 22.9171 32.3036 22.5429 31.978L15.1377 26.0072C14.7736 25.7098 14.4965 25.3197 14.3357 24.8779C14.1749 24.4361 14.1364 23.9591 14.2242 23.4972C14.3119 23.0354 14.5227 22.6058 14.8343 22.2538C15.1459 21.9018 15.5468 21.6405 15.9946 21.4974L39.4136 14.1106C40.3507 13.8147 41.3746 14.069 42.0644 14.7695C42.7539 15.4695 42.9932 16.4973 42.6831 17.4299L35.7068 38.3234C35.5698 38.7332 35.3333 39.1026 35.0185 39.3986C34.7037 39.6945 34.3204 39.9077 33.9029 40.0191C33.6799 40.0842 33.4495 40.1206 33.2172 40.1273Z" fill="#FA5F1C"/>
  <path d="M23.3905 41.0293C22.6432 41.0293 22.0376 40.4236 22.0376 39.6763V32.1046C22.037 31.5325 22.1642 30.9675 22.41 30.451C22.6558 29.9344 23.0139 29.4793 23.4582 29.119L32.4777 21.786C32.6612 21.6262 32.8845 21.5188 33.124 21.4752C33.3634 21.4317 33.6102 21.4535 33.8383 21.5384C34.0664 21.6233 34.2674 21.7682 34.42 21.9577C34.5727 22.1473 34.6714 22.3745 34.7058 22.6154C34.74 22.8564 34.7087 23.1022 34.615 23.3268C34.5213 23.5515 34.3687 23.7467 34.1734 23.8919L25.1539 31.2248C25.0193 31.333 24.9112 31.4705 24.8377 31.6268C24.7642 31.7831 24.7272 31.9541 24.7297 32.1268V39.676C24.7301 40.4183 24.1322 41.0219 23.3905 41.0293Z" fill="#FA5F1C"/>
</svg>
