<svg id="图层_1" data-name="图层 1" xmlns="http://www.w3.org/2000/svg" viewBox="0 0 198 198"><defs><style>.cls-1{fill:#a7abaf;}</style></defs><title>pc原始图标修改合并</title><path class="cls-1" d="M174,147.47c-10.09-4.39-20.78-9.42-30.58-13.8-2.89-.94-5.77-1.57-8.37-2.51-3.46-2.52-6.64-10.67-8.67-14.75-1.72-.31-3.46-.63-5.19-.93.29-6.28,3.76-6.6,5.19-11.61,1.45-4.07.29-9.72,2.32-13.8,1.44-2.51,4.61-2.51,6.06-5,1.44-2.2,2.31-6,2.89-8.47.57-4.71,1.44-11.29-.58-16-1.44-2.83-2-3.15-2.6-6.28-.29-4.08,1.15-17.25,1.44-20.08,0-7.22,0-7.84-1.74-15,0,0-2-6.59-5.19-8.48l-6.35-1.24-3.74-3.77c-15.59-10.36-32.33-3.14-41.27.94C64.6,11,56.52,24.51,62.29,53.69c.87,5-2.6,7.2-2.31,10,.57,6,.57,20.09,5.77,23.54.58.31,4,1.24,4,.93.58,6,1.15,11.61,1.73,17.57,1.15,3.76,4.32,4.08,5.19,9.41l-4,1.25c-1.74,4.08-4.91,12.24-8.38,14.75-2.88.93-5.47,1.56-8.36,2.51-9.81,4.38-20.77,9.41-30.58,13.8-8.95,4.08-19.61,5.65-22.8,15.69,0,6.9-.57,23.22-.57,32.32H87.69L94,149.05l-5.19-11.92L101,130.85l10.1,6.28-5.77,12.24,10.11,46.12h81.65c.28-9.1-.29-25.42-.29-32.32-3.17-10-13.86-11.61-22.8-15.7Z"/></svg>