<svg xmlns="http://www.w3.org/2000/svg" fill="none" viewBox="0 0 27 27" class="design-iconfont">
  <path d="M9.62185 14.2847L9.52493 14.2863C7.81736 14.3396 6.43738 15.8055 6.43738 17.6198C6.43738 19.4679 7.86953 20.955 9.62185 20.955H17.0313L17.0902 20.9569C17.2933 20.9712 17.483 21.064 17.619 21.2155C17.755 21.3671 17.8268 21.5656 17.8192 21.7691C17.8115 21.9727 17.7251 22.1652 17.5781 22.3062C17.431 22.4471 17.235 22.5254 17.0313 22.5244H9.62185L9.50415 22.5229C6.92705 22.4585 4.86792 20.2817 4.86792 17.6198C4.86792 14.9176 6.98984 12.7152 9.62185 12.7152H17.3782C19.1301 12.7152 20.5627 11.2281 20.5627 9.38008C20.5627 7.56577 19.1827 6.09988 17.4747 6.04651L17.3786 6.04495H9.9687C9.76505 6.04589 9.569 5.96762 9.42199 5.82668C9.27498 5.68573 9.18853 5.49316 9.18089 5.28965C9.17325 5.08613 9.24503 4.88762 9.38106 4.73606C9.51709 4.58449 9.70671 4.49175 9.90986 4.47742L9.9687 4.47546H17.3782C20.0102 4.47546 22.1321 6.67786 22.1321 9.38008C22.1321 12.0419 20.0734 14.2188 17.4955 14.2831L17.3778 14.2847H9.62224H9.62185Z" fill="#FA4907"/>
  <path d="M7.02585 2.51368C7.41301 2.51257 7.79659 2.58786 8.1546 2.73525C8.51261 2.88264 8.83802 3.09922 9.11218 3.3726C9.38634 3.64597 9.60386 3.97075 9.75228 4.32834C9.9007 4.68592 9.9771 5.06928 9.9771 5.45645C9.9771 5.84361 9.9007 6.22697 9.75228 6.58455C9.60386 6.94214 9.38634 7.26692 9.11218 7.54029C8.83802 7.81367 8.51261 8.03025 8.1546 8.17764C7.79659 8.32503 7.41301 8.40032 7.02585 8.39921C6.24685 8.39696 5.50052 8.08593 4.95048 7.5343C4.40043 6.98267 4.09155 6.23545 4.09155 5.45645C4.09155 4.67744 4.40043 3.93022 4.95048 3.37859C5.50052 2.82696 6.24685 2.51593 7.02585 2.51368ZM7.02585 4.08317C6.84551 4.08317 6.66693 4.11869 6.50031 4.1877C6.3337 4.25672 6.18231 4.35787 6.05479 4.48539C5.92726 4.61292 5.82611 4.76431 5.75709 4.93092C5.68808 5.09754 5.65256 5.27611 5.65256 5.45646C5.65256 5.6368 5.68808 5.81538 5.75709 5.98199C5.82611 6.14861 5.92726 6.3 6.05479 6.42752C6.18231 6.55504 6.3337 6.6562 6.50031 6.72521C6.66693 6.79423 6.84551 6.82975 7.02585 6.82975C7.39007 6.82975 7.73937 6.68506 7.99691 6.42752C8.25446 6.16998 8.39914 5.82068 8.39914 5.45646C8.39914 5.09224 8.25446 4.74294 7.99691 4.48539C7.73937 4.22785 7.39007 4.08317 7.02585 4.08317ZM19.9741 18.6008C20.3612 18.5997 20.7448 18.675 21.1028 18.8224C21.4608 18.9698 21.7862 19.1864 22.0604 19.4597C22.3346 19.7331 22.5521 20.0579 22.7005 20.4155C22.8489 20.7731 22.9253 21.1564 22.9253 21.5436C22.9253 21.9307 22.8489 22.3141 22.7005 22.6717C22.5521 23.0293 22.3346 23.3541 22.0604 23.6274C21.7862 23.9008 21.4608 24.1174 21.1028 24.2648C20.7448 24.4122 20.3612 24.4875 19.9741 24.4863C19.1951 24.4841 18.4487 24.1731 17.8987 23.6214C17.3486 23.0698 17.0398 22.3226 17.0398 21.5436C17.0398 20.7646 17.3486 20.0174 17.8987 19.4657C18.4487 18.9141 19.1951 18.6031 19.9741 18.6008ZM19.9741 20.1703C19.6098 20.1703 19.2605 20.315 19.003 20.5725C18.7455 20.83 18.6008 21.1793 18.6008 21.5436C18.6008 21.9078 18.7455 22.2571 19.003 22.5146C19.2605 22.7722 19.6098 22.9169 19.9741 22.9169C20.3383 22.9169 20.6876 22.7722 20.9451 22.5146C21.2027 22.2571 21.3474 21.9078 21.3474 21.5436C21.3474 21.1793 21.2027 20.83 20.9451 20.5725C20.6876 20.315 20.3383 20.1703 19.9741 20.1703Z" fill="#FA4907"/>
</svg>
