<?xml version="1.0" standalone="no"?><!DOCTYPE svg PUBLIC "-//W3C//DTD SVG 1.1//EN" "http://www.w3.org/Graphics/SVG/1.1/DTD/svg11.dtd"><svg t="1648091110593" class="icon" viewBox="0 0 1024 1024" version="1.1" xmlns="http://www.w3.org/2000/svg" p-id="2259" xmlns:xlink="http://www.w3.org/1999/xlink" width="200" height="200"><defs><style type="text/css">@font-face { font-family: feedback-iconfont; src: url("//at.alicdn.com/t/font_1031158_u69w8yhxdu.woff2?t=1630033759944") format("woff2"), url("//at.alicdn.com/t/font_1031158_u69w8yhxdu.woff?t=1630033759944") format("woff"), url("//at.alicdn.com/t/font_1031158_u69w8yhxdu.ttf?t=1630033759944") format("truetype"); }
</style></defs><path d="M512 768a32 32 0 0 1-32-32v-320a32 32 0 0 1 64 0v320a32 32 0 0 1-32 32z" p-id="2260"></path><path d="M896 768a32 32 0 0 1-32-32V640h-704v96a32 32 0 0 1-64 0v-128A32 32 0 0 1 128 576h768a32 32 0 0 1 32 32v128a32 32 0 0 1-32 32zM640 320H384a32 32 0 0 1-32-32v-256A32 32 0 0 1 384 0h256a32 32 0 0 1 32 32v256a32 32 0 0 1-32 32zM416 256h192V64h-192z" p-id="2261"></path><path d="M896 928m-96 0a96 96 0 1 0 192 0 96 96 0 1 0-192 0Z" p-id="2262"></path><path d="M512 928m-96 0a96 96 0 1 0 192 0 96 96 0 1 0-192 0Z" p-id="2263"></path><path d="M128 928m-96 0a96 96 0 1 0 192 0 96 96 0 1 0-192 0Z" p-id="2264"></path></svg>