<svg id="图层_1" data-name="图层 1" xmlns="http://www.w3.org/2000/svg" viewBox="0 0 198 198"><defs><style>.cls-1{fill:#a7abaf;fill-rule:evenodd;}</style></defs><title>pc原始图标修改合并</title><path id="费用设置" class="cls-1" d="M138.16,12.47c16.09.39,29.65,1.91,42.36,7.64a74.09,74.09,0,0,1,9.26,5.34c10.76,6.85,10.7,24.44,0,31.75C180.16,63.82,169.4,67,158,68.63c-17.71,2.53-35.28,1.86-52.23-4.18a72,72,0,0,1-16.08-8.64c-9-6.17-8.71-22.46-.08-29.23,9.5-7.44,20.55-10.66,32.12-12.49C127.94,13.1,134.23,12.84,138.16,12.47ZM73.82,57.6v55.16c-21,2-41.48,1.18-60.53-9C5,99.42-.11,93.14.84,82.94a18.05,18.05,0,0,1,7.05-13c7.54-6.11,16.5-9,25.82-11a122.3,122.3,0,0,1,37-1.9A31.29,31.29,0,0,1,73.82,57.6Zm10.52,4.94c9.44,12.6,23.07,16.13,37,18.48a112.08,112.08,0,0,0,48.71-2.23C180.26,76,190,72.11,196.3,62.73c3.59,8,1.39,16.81-5.6,22.48-7.43,6.05-16.24,9.07-25.47,11-21.23,4.33-42.22,3.75-62.67-4A49.79,49.79,0,0,1,92.74,87c-9-6-11.52-13.39-8.4-24.5Zm.08,88.24c9.14,12.05,22.13,15.72,35.6,18.08,19.07,3.31,38,2.47,56.37-4,7.82-2.75,15-6.59,19.7-13.86,3.14,5,2.42,14.86-2.56,19.31-4.56,4.06-9.9,7.93-15.59,10-25.17,9.17-50.58,9-75.77-.22a45.48,45.48,0,0,1-11-6.12c-7.73-5.69-9.91-13.41-6.76-23.21Zm112.06-29c3.32,9.86.9,17.85-6.95,23.67s-17.23,8.8-26.86,10.56c-19.32,3.51-38.51,3.05-57.14-3.51a59.78,59.78,0,0,1-16-8.77c-6.63-5-8.21-13.57-5-21.48,10.46,13.28,25.58,16.53,41,18.67A109.45,109.45,0,0,0,170.37,138c10.06-2.82,19.6-6.69,26.11-16.23ZM84.38,91.33c7.66,10.76,18.74,14.6,30.3,17.23a114.31,114.31,0,0,0,54.35-.64c10.61-2.72,20.7-6.67,27.33-16.4,3.29,7.94,1.45,16.27-4.83,21.82-6.89,6.09-15.28,9.18-24.08,11.16-21,4.74-41.9,4.48-62.4-2.56a56.25,56.25,0,0,1-12.63-6.3c-8.73-5.77-11.21-13.46-8-24.31ZM2.17,135.21c7,10.07,17.29,13.83,28,16.63,13.64,3.55,27.52,4,41.5,2.56a15.61,15.61,0,0,1,1.81,0c.56,5.22,1.12,10.36,1.71,15.87-20.29,2.3-40.63,1.61-59.86-7.65a39,39,0,0,1-8.82-6c-5.89-5.26-7.49-13.42-4.38-21.39Zm71.6-9.43V141.7c-4.93.29-9.74.81-14.55.84-13.52.08-26.87-1.4-39.37-6.81a55.29,55.29,0,0,1-13.58-8.35c-5.87-4.95-7.18-13.33-4.2-20.7C13.49,120.85,29.8,124,46.45,125.62c9,.88,18.07.16,27.33.16Z"/></svg>