<svg id="图层_1" data-name="图层 1" xmlns="http://www.w3.org/2000/svg" viewBox="0 0 198 198"><defs><style>.cls-1{fill:#fcfcfc;}.cls-2{fill:#8d929b;}.cls-3{fill:#a7abaf;}</style></defs><title>pc原始图标修改合并</title><line class="cls-1" x1="67.96" y1="163.96" x2="41.82" y2="185.9"/><path class="cls-2" d="M41.82,192.1a6.2,6.2,0,0,1-4-10.95L64,159.21a6.2,6.2,0,0,1,8,9.5L45.8,190.65A6.18,6.18,0,0,1,41.82,192.1Z"/><line class="cls-1" x1="148.28" y1="185.91" x2="122.16" y2="163.94"/><path class="cls-2" d="M148.27,192.11a6.2,6.2,0,0,1-4-1.45l-26.12-22a6.2,6.2,0,0,1,8-9.49l26.12,22a6.2,6.2,0,0,1-4,10.94Z"/><path class="cls-3" d="M195.18,15.2H2.82a3,3,0,0,0-3,3V147.8a3,3,0,0,0,3,3H195.18a3,3,0,0,0,3-3V18.2A3,3,0,0,0,195.18,15.2ZM66.8,121.94a6.2,6.2,0,1,1-12.4,0V87.81a6.2,6.2,0,1,1,12.4,0Zm38.4,0a6.2,6.2,0,1,1-12.4,0V65.16a6.2,6.2,0,0,1,12.4,0Zm38.4,0a6.2,6.2,0,1,1-12.4,0V47.22a6.2,6.2,0,1,1,12.4,0Z"/></svg>