<svg id="图层_1" data-name="图层 1" xmlns="http://www.w3.org/2000/svg" viewBox="0 0 198 198"><defs><style>.cls-1{fill:#a7abaf;}.cls-2{fill:none;stroke:#fff;stroke-linecap:round;stroke-linejoin:round;stroke-width:13.23px;}</style></defs><title>pc原始图标修改合并</title><path class="cls-1" d="M99.34,198.25q-33.37,0-66.75,0c-12.65,0-19.23-6.38-19.24-18.65,0-33.51.06-67,0-100.55A20,20,0,0,1,21.38,62.2C43.87,44.28,66.2,26.15,88.61,8.14c7.44-6,15.19-6.09,22.59-.16Q145.65,35.61,180,63.37a16.14,16.14,0,0,1,6.33,13.43c-.07,34.46,0,68.93,0,103.39,0,11.48-6.74,18-18.56,18.05Q133.54,198.3,99.34,198.25Z"/><line class="cls-2" x1="131.16" y1="158.75" x2="64.99" y2="158.75"/></svg>