<svg id="图层_1" data-name="图层 1" xmlns="http://www.w3.org/2000/svg" viewBox="0 0 198 198"><defs><style>.cls-1{fill:#a7abaf;}</style></defs><title>pc原始图标修改合并</title><path class="cls-1" d="M188.1,9.5c0-5-4.53-9-10.13-9H20c-5.6,0-10.13,4-10.13,9L0,185c0,7.45,6.8,13.5,15.19,13.5H182.81c8.39,0,15.19-6.05,15.19-13.5ZM99,103.13c-30.51,0-55.33-22.35-55.33-49.83a5.83,5.83,0,0,1,11.66,0c0,21,19.59,38.17,43.67,38.17s43.67-17.12,43.67-38.17a5.83,5.83,0,0,1,11.66,0C154.33,80.78,129.51,103.13,99,103.13Z"/></svg>