<svg xmlns="http://www.w3.org/2000/svg" fill="none" viewBox="0 0 58 58" class="design-iconfont">
  <rect x=".5" y=".5" width="57" height="57" rx="5.5" fill="#fff" stroke="#EEE"/>
  <path d="M39.3906 41.7656H18.6094C16.1453 41.7656 14.1562 39.7469 14.1562 37.3125V20.6875C14.1562 18.2234 16.175 16.2344 18.6094 16.2344H39.3906C41.8547 16.2344 43.8438 18.2531 43.8438 20.6875V37.3125C43.8438 39.7766 41.8547 41.7656 39.3906 41.7656Z" fill="#FA5F1C"/>
  <path d="M16.8578 24.9329H41.2015V27.9016H16.8578V24.9329Z" fill="#FA5F1C"/>
  <path d="M14.1562 24.9922H43.8438V27.9609H14.1562V24.9922Z" fill="#fff"/>
  <path d="M26.625 18.9062H31.375V29.1781L29.1781 28.2875L26.625 29.2375V18.9062Z" fill="#fff"/>
  <path d="M29.8906 20.3906V26.9812L29.1781 26.7141L28.1094 27.1V20.3906H29.8906ZM32.8594 17.4219H25.1406V31.375L29.1484 29.8906L32.8594 31.375V17.4219Z" fill="#fff"/>
</svg>
