<svg width="28" height="27" viewBox="0 0 28 27" fill="none" xmlns="http://www.w3.org/2000/svg">
<g id="Group 956">
<path id="Vector" d="M13.9795 26.216C6.75154 26.216 0.871582 20.3361 0.871582 13.1079C0.871582 5.87996 6.75154 0 13.9795 0C21.2077 0 27.0876 5.87996 27.0876 13.1079C27.0876 20.3361 21.2077 26.216 13.9795 26.216ZM13.9795 1.88098C7.78886 1.88098 2.75256 6.91728 2.75256 13.1079C2.75256 19.2978 7.78886 24.3351 13.9795 24.3351C20.1693 24.3351 25.2066 19.2978 25.2066 13.1079C25.2066 6.91731 20.1693 1.88098 13.9795 1.88098Z" fill="currentColor"/>
<path id="Vector_2" d="M19.073 19.1721C19.4499 18.9621 19.8026 18.7489 20.0906 18.5358C20.123 18.5109 20.2656 18.4114 20.3008 18.3826C20.4606 18.2505 20.5643 18.0512 20.5643 17.8274C20.5643 17.6142 20.4714 17.4213 20.3223 17.2937L17.3853 14.8729C17.2643 14.7739 17.1081 14.7134 16.9371 14.7134C16.745 14.7134 16.5706 14.7876 16.4423 14.9084C16.3923 14.9583 15.9513 15.4102 15.9513 15.4102C15.6455 15.7167 15.1505 15.7167 14.8447 15.4102L11.8477 12.4101C11.5417 12.1043 11.5417 11.6058 11.8477 11.3L12.3354 10.8121C12.4634 10.6843 12.5382 10.5063 12.5382 10.3146C12.5382 10.122 12.4634 9.95107 12.3424 9.82299L9.82645 6.78343C9.69482 6.62648 9.49554 6.52368 9.27479 6.52368C9.04006 6.52368 8.83373 6.63735 8.70186 6.81179L8.65879 6.86854C8.11073 7.60905 7.39551 8.78394 7.39551 9.88706C7.39551 12.9269 14.1721 19.6925 17.183 19.6925C17.2398 19.6925 17.2963 19.6885 17.3501 19.6885C18.1313 19.6256 18.725 19.3663 19.073 19.1721Z" fill="currentColor"/>
</g>
</svg>
