<svg id="图层_1" data-name="图层 1" xmlns="http://www.w3.org/2000/svg" viewBox="0 0 198 198"><defs><style>.cls-1{fill:#a7abaf;}</style></defs><title>pc原始图标修改合并</title><path class="cls-1" d="M112.93,7.66h-5a14.43,14.43,0,0,0-25.21,0H79.23A12.65,12.65,0,0,0,66.6,20.31v8.44A12.64,12.64,0,0,0,79.23,41.39h33.7a12.63,12.63,0,0,0,12.63-12.64V20.31A12.64,12.64,0,0,0,112.93,7.66Z"/><path class="cls-1" d="M171.07,21.53H134v7.22a21.1,21.1,0,0,1-21.06,21.08H79.23A21.09,21.09,0,0,1,58.18,28.75V21.53H21.09a3,3,0,0,0-3,3V194.47a3,3,0,0,0,3,3h150a3,3,0,0,0,3-3V24.53A3,3,0,0,0,171.07,21.53ZM97.92,131.33c-.14.15-.28.29-.43.43h0L72.72,156.54c-.39.39-2,2.09-2.44,2.54a5.39,5.39,0,0,1-7.62-.42h0L49.12,144.82a5.27,5.27,0,0,1,7.26-7.65,6.14,6.14,0,0,1,.43.45l9.86,10.07L90,124.3a5.28,5.28,0,1,1,7.88,7Zm0-54.91a5.66,5.66,0,0,1-.43.42h0L72.72,101.63c-.39.39-2,2.09-2.44,2.53a5.39,5.39,0,0,1-7.62-.41h0L49.12,89.91a5.28,5.28,0,0,1,7.26-7.66c.15.14.29.3.43.46l9.86,10.07L90,69.39a5.28,5.28,0,1,1,7.88,7Zm54,65H122.21a5.28,5.28,0,0,1-.67-10.54c.22,0,.44,0,.67,0h29.05a5.28,5.28,0,0,1,.66,10.54Zm0-54.91q-.33,0-.66,0h-29A5.28,5.28,0,0,1,121.54,76a3.75,3.75,0,0,1,.67,0h29.05a5.28,5.28,0,0,1,.66,10.54Z"/></svg>