<svg id="图层_1" data-name="图层 1" xmlns="http://www.w3.org/2000/svg" viewBox="0 0 198 198"><defs><style>.cls-1{fill:#a7abaf;}</style></defs><title>pc原始图标修改合并</title><path class="cls-1" d="M148.34,180.47H49.66a5.17,5.17,0,1,1,0-10.33h98.68a5.17,5.17,0,1,1,0,10.33Z"/><path class="cls-1" d="M195.23,21.48H2.77a3,3,0,0,0-3,3V154.14a3,3,0,0,0,3,3H195.23a3,3,0,0,0,3-3V24.48A3,3,0,0,0,195.23,21.48ZM47.58,131.57a6.21,6.21,0,0,1-12.41,0V97.42a6.21,6.21,0,0,1,12.41,0Zm38.41,0a6.2,6.2,0,0,1-12.4,0V74.76a6.2,6.2,0,1,1,12.4,0Zm38.42,0a6.2,6.2,0,0,1-12.4,0V56.81a6.2,6.2,0,0,1,12.4,0Zm38.42,0a6.21,6.21,0,0,1-12.41,0V97.42a6.21,6.21,0,0,1,12.41,0Z"/></svg>