<svg xmlns="http://www.w3.org/2000/svg" fill="none" viewBox="0 0 58 57" class="design-iconfont">
  <rect opacity=".1" width="57.6406" height="57" rx="10" fill="#427A0A"/>
  <path d="M36.6667 28.3H22.1333C21.51 28.3 21 27.79 21 27.1667C21 26.5433 21.51 26.0333 22.1333 26.0333H36.6667C37.29 26.0333 37.8 26.5433 37.8 27.1667C37.8 27.79 37.29 28.3 36.6667 28.3ZM37.8 36.2333C37.8 35.61 37.29 35.1 36.6667 35.1H22.1333C21.51 35.1 21 35.61 21 36.2333C21 36.8567 21.51 37.3667 22.1333 37.3667H36.6667C37.29 37.3667 37.8 36.8567 37.8 36.2333ZM36.25 15.8333C36.25 14.2467 35.0033 13 33.4167 13H25.4833C23.8967 13 22.65 14.2467 22.65 15.8333C22.65 17.42 23.8967 18.6667 25.4833 18.6667H33.4167C35.0033 18.6667 36.25 17.42 36.25 15.8333ZM33.4167 15.2667C33.7567 15.2667 33.9833 15.4933 33.9833 15.8333C33.9833 16.1733 33.7567 16.4 33.4167 16.4H25.4833C25.1433 16.4 24.9167 16.1733 24.9167 15.8333C24.9167 15.4933 25.1433 15.2667 25.4833 15.2667H33.4167ZM43.9 43.6V18.6667C43.9 16.7967 42.37 15.2667 40.5 15.2667H39.3667C38.7433 15.2667 38.2333 15.7767 38.2333 16.4C38.2333 17.0233 38.7433 17.5333 39.3667 17.5333H40.5C41.1233 17.5333 41.6333 18.0433 41.6333 18.6667V43.6C41.6333 44.2233 41.1233 44.7333 40.5 44.7333H18.4C17.7767 44.7333 17.2667 44.2233 17.2667 43.6V18.6667C17.2667 18.0433 17.7767 17.5333 18.4 17.5333H20.1C20.7233 17.5333 21.2333 17.0233 21.2333 16.4C21.2333 15.7767 20.7233 15.2667 20.1 15.2667H18.4C16.53 15.2667 15 16.7967 15 18.6667V43.6C15 45.47 16.53 47 18.4 47H40.5C42.37 47 43.9 45.47 43.9 43.6Z" fill="#427A0A"/>
</svg>
