<svg xmlns="http://www.w3.org/2000/svg" fill="none" viewBox="0 0 58 57" class="design-iconfont">
  <rect opacity=".1" width="57.6406" height="57" rx="10" fill="#5843BE"/>
  <path fill-rule="evenodd" clip-rule="evenodd" d="M28.4812 35.0944C26.4866 35.0944 24.8645 33.4903 24.8645 31.5179C24.8645 29.5454 26.4866 27.9413 28.4812 27.9413C30.4759 27.9413 32.098 29.5454 32.098 31.5179C32.098 33.4903 30.4759 35.0944 28.4812 35.0944ZM28.481 26.1531C25.4891 26.1531 23.0559 28.5592 23.0559 31.5179C23.0559 34.4766 25.4891 36.8828 28.481 36.8828C31.473 36.8828 33.9062 34.4766 33.9062 31.5179C33.9062 28.5592 31.473 26.1531 28.481 26.1531Z" fill="#5843BE"/>
  <path fill-rule="evenodd" clip-rule="evenodd" d="M33.7633 23.199C32.6475 22.5033 31.3843 22.0249 30.0299 21.8139L33.5028 16.3176H38.522L33.7633 23.199ZM36.6187 31.5181C36.6187 35.9548 32.9685 39.5653 28.481 39.5653C23.9944 39.5653 20.3433 35.9548 20.3433 31.5181C20.3433 27.0804 23.9944 23.4708 28.481 23.4708C32.9685 23.4708 36.6187 27.0804 36.6187 31.5181ZM18.4401 16.3176H23.4592L26.9331 21.8139C25.5777 22.0249 24.3155 22.5033 23.1988 23.199L18.4401 16.3176ZM41.0348 15.006C40.8792 14.7127 40.5709 14.5294 40.2355 14.5294H33.0019C32.69 14.5294 32.4006 14.6877 32.2352 14.9497L28.481 20.8894L24.7268 14.9497C24.5613 14.6877 24.272 14.5294 23.96 14.5294H16.7265C16.3911 14.5294 16.0836 14.7127 15.9272 15.006C15.7708 15.2993 15.7916 15.6542 15.9806 15.9279L21.761 24.2881C19.7836 26.0871 18.5349 28.6577 18.5349 31.5181C18.5349 36.941 22.9971 41.3536 28.481 41.3536C33.9658 41.3536 38.4271 36.941 38.4271 31.5181C38.4271 28.6577 37.1784 26.0871 35.2009 24.2881L40.9823 15.9279C41.1713 15.6542 41.1921 15.2993 41.0348 15.006Z" fill="#5843BE"/>
</svg>
