<svg xmlns="http://www.w3.org/2000/svg" fill="none" viewBox="0 0 58 57" class="design-iconfont">
  <rect opacity=".1" width="57.6406" height="57" rx="10" fill="#1A55AF"/>
  <path d="M35.5156 44C35.3281 44 35.1406 43.9531 34.9531 43.8125L34.7656 43.6719C34.4375 43.4375 34.1562 43.2031 33.875 42.9219L31.0625 40.3438C30.6875 40.0156 30.6406 39.4063 31.0156 39.0313C31.3906 38.6563 31.9531 38.6094 32.3281 38.9844L35.0937 41.5625C35.375 41.7969 35.6094 41.9844 35.8437 42.1719L36.0312 42.3125C36.4531 42.6406 36.5469 43.2031 36.2187 43.625C36.0781 43.8594 35.7969 44 35.5156 44ZM42.5469 37.8594C42.3594 37.8594 42.1719 37.8125 42.0312 37.7187C41.6094 37.4375 41.4687 36.875 41.75 36.4062C42.3125 35.5156 42.2187 34.3438 41.4687 33.5938C41.0469 33.1719 40.4844 32.9375 39.875 32.9375C39.2656 32.9375 38.7031 33.1719 38.2812 33.5938L38.2344 33.6406L36.4531 35.0938C36.0312 35.4219 35.4687 35.375 35.1406 34.9531C34.8125 34.5313 34.8594 33.9688 35.2812 33.6406L37.0625 32.1875C37.8125 31.4375 38.8437 31.0156 39.9219 31.0156C41 31.0156 42.0312 31.4375 42.8281 32.2344C44.1875 33.5938 44.4219 35.7969 43.3437 37.3906C43.1562 37.7188 42.8281 37.8594 42.5469 37.8594Z" fill="#1A55AF" stroke="#1A55AF" stroke-width=".2"/>
  <path d="M31.6719 40.5781C31.4375 40.5781 31.2031 40.4844 31.0156 40.2969L28.9063 38.0938C28.1563 37.3438 27.7344 36.3125 27.7344 35.1875C27.7344 34.1094 28.1563 33.0781 28.9531 32.2812C29.75 31.4844 30.7812 31.0625 31.8594 31.0625C32.9375 31.0625 33.9688 31.4844 34.7188 32.2344L36.5 33.6875C36.9219 34.0156 36.9688 34.625 36.6406 35C36.3125 35.4219 35.7031 35.4687 35.3281 35.1406L33.5469 33.6875C33.5 33.6875 33.5 33.6406 33.5 33.6406C33.0781 33.2188 32.5156 32.9844 31.9063 32.9844C31.2969 32.9844 30.7344 33.2188 30.3125 33.6406C29.8906 34.0625 29.6563 34.625 29.6563 35.2344C29.6563 35.8437 29.8906 36.4062 30.3125 36.8281L32.4688 39.0313C32.8438 39.4063 32.7969 40.0156 32.4219 40.3438C32.1406 40.4844 31.9063 40.5781 31.6719 40.5781ZM42.0781 41.4687H37.1094C36.5938 41.4687 36.1719 41.0469 36.1719 40.5312C36.1719 40.0156 36.5938 39.5937 37.1094 39.5937H42.0781C42.5938 39.5937 43.0156 40.0156 43.0156 40.5312C43.0156 41.0469 42.5938 41.4687 42.0781 41.4687Z" fill="#1A55AF" stroke="#1A55AF" stroke-width=".2"/>
  <path d="M39.5938 44C39.0781 44 38.6562 43.5781 38.6562 43.0625V38.0469C38.6562 37.5312 39.0781 37.1094 39.5938 37.1094C40.1094 37.1094 40.5312 37.5312 40.5312 38.0469V43.0625C40.5312 43.5781 40.1094 44 39.5938 44ZM28.2969 30.1719C23.8438 30.1719 20.2344 26.5625 20.2344 22.1094C20.2344 17.6562 23.8438 14.0469 28.2969 14.0469C32.75 14.0469 36.3594 17.6562 36.3594 22.1094C36.3594 26.5625 32.75 30.1719 28.2969 30.1719ZM28.2969 15.9219C24.875 15.9219 22.1094 18.6875 22.1094 22.1094C22.1094 25.5312 24.875 28.2969 28.2969 28.2969C31.7188 28.2969 34.4844 25.5312 34.4844 22.1094C34.4844 18.6875 31.7188 15.9219 28.2969 15.9219ZM14.9844 43.9531C14.4687 43.9531 14.0469 43.5313 14.0469 43.0156C14.0469 38.4688 16.0156 34.2031 19.4844 31.2969C19.8594 30.9688 20.4688 31.0156 20.7969 31.3906C21.125 31.7656 21.0781 32.375 20.7031 32.7031C17.6562 35.2813 15.9219 39.0313 15.9219 43.0156C15.9219 43.5313 15.5 43.9531 14.9844 43.9531Z" fill="#1A55AF" stroke="#1A55AF" stroke-width=".2"/>
</svg>
