<svg xmlns="http://www.w3.org/2000/svg" fill="none" viewBox="0 0 58 57" class="design-iconfont">
  <rect opacity=".1" width="57.6406" height="57" rx="10" fill="#5843BE"/>
  <path d="M33.6266 30.7333C32.4014 29.495 30.9143 28.5531 29.277 27.9783C30.1332 27.3704 30.8321 26.5635 31.3147 25.6255C31.7973 24.6876 32.0493 23.6462 32.0496 22.5892C32.0472 20.8421 31.3588 19.1672 30.1353 17.932C28.9118 16.6968 27.2532 16.002 25.5231 16C23.7931 16.0022 22.1344 16.697 20.9109 17.9322C19.6873 19.1674 18.9986 20.8421 18.9958 22.5892C18.9964 23.6429 19.2472 24.6812 19.7272 25.6168C20.2072 26.5525 20.9024 27.3583 21.7544 27.9667C20.1048 28.5408 18.6071 29.4867 17.3751 30.7342C16.3065 31.8053 15.4582 33.0792 14.879 34.4826C14.2998 35.886 14.001 37.3912 14 38.9117V40.08C14 40.5883 14.4085 41 14.9118 41H36.0939C36.5973 41 37.0058 40.5875 37.0058 40.0792V38.9075C37.0034 37.3877 36.7037 35.8834 36.1239 34.4809C35.5442 33.0784 34.6958 31.8054 33.6274 30.735L33.6266 30.7333ZM20.8186 22.5892C20.82 21.3299 21.316 20.1227 22.1979 19.2325C23.0797 18.3422 24.2754 17.8417 25.5223 17.8408C26.7692 17.8417 27.9649 18.3422 28.8467 19.2325C29.7286 20.1227 30.2246 21.3299 30.2259 22.5892C30.2244 23.8482 29.7283 25.0553 28.8464 25.9453C27.9646 26.8354 26.7691 27.3358 25.5223 27.3367C24.2757 27.3351 23.0806 26.8345 22.1989 25.9446C21.3172 25.0547 20.8208 23.848 20.8186 22.5892ZM35.1804 39.1583H15.8204V38.9375C15.8303 33.5592 20.1692 29.1842 25.5 29.1842C30.8275 29.1842 35.1697 33.5592 35.1796 38.9375L35.1804 39.1583Z" fill="#5843BE" stroke="#5843BE" stroke-width=".4"/>
  <rect x="34" y="20" width="10" height="2.2" rx="1.1" fill="#5843BE"/>
  <rect x="38" y="26" width="10" height="2.2" rx="1.1" transform="rotate(-90 38 26)" fill="#5843BE"/>
</svg>
