<svg xmlns="http://www.w3.org/2000/svg" fill="none" viewBox="0 0 58 57" class="design-iconfont">
  <rect opacity=".1" width="57.6406" height="57" rx="10" fill="#FA5F1C"/>
  <path d="M22.3699 29.425H22.3814C22.6149 29.4127 22.8349 29.3104 22.9959 29.1391C23.1568 28.9678 23.2466 28.7407 23.2466 28.5046C23.2466 28.2684 23.1568 28.0413 22.9959 27.8701C22.8349 27.6988 22.6149 27.5965 22.3814 27.5842C21.751 27.5842 21.1445 27.2567 20.6741 26.6633C20.1559 26.0083 19.8712 25.1275 19.8712 24.18C19.8712 23.2342 20.1559 22.35 20.6741 21.6975C21.1445 21.1058 21.7501 20.7775 22.3814 20.7775C22.6166 20.7674 22.8387 20.666 23.0016 20.4944C23.1644 20.3228 23.2553 20.0943 23.2553 19.8567C23.2553 19.619 23.1644 19.3905 23.0016 19.219C22.8387 19.0474 22.6166 18.9459 22.3814 18.9358C21.1849 18.9358 20.0717 19.5092 19.2473 20.5492C18.4733 21.5283 18.0466 22.8183 18.0466 24.18C18.0466 25.5433 18.4733 26.8333 19.2473 27.8133C19.3637 27.9633 19.4907 28.1033 19.6187 28.2317C18.6336 28.7298 17.7701 29.4421 17.0902 30.3175C15.7443 32.0183 15 34.2725 15 36.6583C15.01 36.8958 15.1104 37.1201 15.2804 37.2846C15.4503 37.449 15.6765 37.5408 15.9118 37.5408C16.1472 37.5408 16.3734 37.449 16.5433 37.2846C16.7132 37.1201 16.8137 36.8958 16.8237 36.6583C16.8237 32.67 19.3092 29.425 22.3666 29.425H22.3699ZM39.8344 30.7333C38.6092 29.495 37.1221 28.5531 35.4848 27.9783C36.3411 27.3704 37.04 26.5635 37.5225 25.6255C38.0051 24.6876 38.2572 23.6462 38.2575 22.5892C38.2551 20.8421 37.5666 19.1672 36.3432 17.932C35.1197 16.6968 33.461 16.002 31.731 16C30.0009 16.0022 28.3423 16.697 27.1187 17.9322C25.8951 19.1674 25.2065 20.8421 25.2036 22.5892C25.2043 23.6429 25.4551 24.6812 25.9351 25.6168C26.4151 26.5525 27.1102 27.3583 27.9623 27.9667C26.3127 28.5408 24.8149 29.4867 23.5829 30.7342C22.5144 31.8053 21.6661 33.0792 21.0868 34.4826C20.5076 35.886 20.2089 37.3912 20.2078 38.9117V40.08C20.2078 40.5883 20.6163 41 21.1197 41H42.3018C42.8052 41 43.2136 40.5875 43.2136 40.0792V38.9075C43.2112 37.3877 42.9116 35.8834 42.3318 34.4809C41.752 33.0784 40.9036 31.8054 39.8353 30.735L39.8344 30.7333ZM27.0265 22.5892C27.0278 21.3299 27.5238 20.1227 28.4057 19.2325C29.2876 18.3422 30.4832 17.8417 31.7301 17.8408C32.9771 17.8417 34.1727 18.3422 35.0546 19.2325C35.9364 20.1227 36.4325 21.3299 36.4338 22.5892C36.4323 23.8482 35.9361 25.0553 35.0543 25.9453C34.1724 26.8354 32.9769 27.3358 31.7301 27.3367C30.4835 27.3351 29.2884 26.8345 28.4067 25.9446C27.525 25.0547 27.0287 23.848 27.0265 22.5892ZM41.3883 39.1583H22.0282V38.9375C22.0381 33.5592 26.3771 29.1842 31.7079 29.1842C37.0354 29.1842 41.3776 33.5592 41.3875 38.9375L41.3883 39.1583Z" fill="#FA5F1C" stroke="#FA5F1C" stroke-width=".4"/>
</svg>
