<svg id="图层_1" data-name="图层 1" xmlns="http://www.w3.org/2000/svg" viewBox="0 0 198 198"><defs><style>.cls-1{fill:#a7abaf;fill-rule:evenodd;}</style></defs><title>pc原始图标修改合并</title><path id="人员管理" class="cls-1" d="M99,179.5c-12.35,0-24.69,0-37,0-6.23,0-8-1.81-8-8.31,0-18.77-.09-37.55,0-56.32S65.83,83.64,83.42,83.5q15.69-.14,31.37,0c17.4.17,29.17,12.6,29.3,31.1.13,18.92,0,37.82,0,56.74,0,6.28-1.77,8.13-7.74,8.15C123.91,179.52,111.44,179.5,99,179.5Zm-33.45-139C65.28,21.13,80.12,5.07,98.67,4.69c18.48-.19,33.61,15.65,33.79,35.37S117.8,75.93,99.31,76.12,65.7,60.48,65.52,40.75v-.21ZM44.21,99.19c-2.72,26.74-.68,53.22-1.34,80a10.06,10.06,0,0,1-2,.3c-7.93-.07-15.88.2-23.78-.41-8.19-.6-14.57-7.82-14.67-16.58-.28-11.92-.4-23.87,0-35.79C2.94,112,14.61,99.9,28.34,99.24c5.38-.26,10.78,0,15.87,0Zm109.62-.44c6.72.39,13.88-.06,20.66,1.4,12.52,2.69,21.08,14.55,21.26,28.12q.21,16.48,0,33c-.12,9.92-6.18,17.27-15.47,17.89-8.38.57-16.82.13-25.1.13-.64-26.65,1.37-53.25-1.36-80.53ZM40.11,91.43c-13.81,0-25-12-25-26.68s11.19-26.66,25-26.66S65,49.86,65.1,64.48s-10.71,26.71-24.43,27Zm143-26.6c0,14.77-11.23,26.73-25.06,26.72s-25-12-25-26.74S144.19,38.08,158,38.09h.24c13.73,0,24.83,11.93,24.8,26.58v.16Z"/></svg>