<svg xmlns="http://www.w3.org/2000/svg" fill="none" viewBox="0 0 58 57" class="design-iconfont">
  <rect opacity=".1" width="57.6406" height="57" rx="10" fill="#FF8A00"/>
  <path d="M30.5 38.0765C23.2715 38.0765 17.071 33.7247 14.3497 27.4982C17.071 21.2755 23.2752 16.9236 30.5 16.9236C37.7248 16.9236 43.9291 21.2753 46.6503 27.5019C43.9291 33.7245 37.7283 38.0765 30.5 38.0765ZM30.5 19.2751C22.1252 19.2751 17.5739 26.0045 17.5739 27.5019C17.5739 28.9995 23.5303 35.7286 30.5 35.7286C37.4142 35.7286 43.4261 29.5171 43.4261 27.5019C43.4261 25.7013 38.5456 19.2751 30.5 19.2751ZM30.5 33.3771C27.2536 33.3771 24.6248 30.7483 24.6248 27.5019C24.6248 24.2557 27.2536 21.6268 30.5 21.6268C33.7464 21.6268 36.3752 24.2594 36.3752 27.5019C36.3752 30.7444 33.7464 33.3771 30.5 33.3771ZM30.5 23.9745C28.5514 23.9745 26.9728 25.5533 26.9728 27.5017C26.9728 29.4503 28.5516 31.0289 30.5 31.0289C32.4486 31.0289 34.0272 29.4503 34.0272 27.5017C34.0272 25.5535 32.4486 23.9745 30.5 23.9745Z" fill="#FF8A00"/>
</svg>
