<svg xmlns="http://www.w3.org/2000/svg" fill="none" viewBox="0 0 58 57" class="design-iconfont">
  <rect opacity=".1" width="57.6406" height="57" rx="10" fill="#5843BE"/>
  <g clip-path="url(#clip0_448_2859)">
    <path d="M16.8112 26.3759C16.7572 26.3756 16.7031 26.3721 16.6495 26.3653C16.381 26.3261 16.1356 26.1916 15.958 25.9864C15.7805 25.7813 15.6826 25.5191 15.6823 25.2478L15.6682 18.2612C15.6682 17.962 15.7871 17.675 15.9986 17.4635C16.2102 17.2519 16.4971 17.1331 16.7963 17.1331C17.0955 17.1331 17.3824 17.2519 17.594 17.4635C17.8055 17.675 17.9244 17.962 17.9244 18.2612V20.5472C19.216 18.8322 20.8867 17.439 22.806 16.4767C24.7253 15.5144 26.8411 15.009 28.9881 15H28.9987C31.9812 15.011 34.8812 15.9805 37.2706 17.7656C39.66 19.5507 41.4121 22.0567 42.2684 24.9136C42.3513 25.2 42.3176 25.5076 42.1745 25.7692C42.0315 26.0308 41.7908 26.2252 41.5049 26.3099C41.2191 26.3947 40.9113 26.3629 40.6488 26.2216C40.3863 26.0802 40.1903 25.8408 40.1037 25.5555C39.3891 23.1639 37.9238 21.0658 35.9246 19.5713C33.9253 18.0769 31.4982 17.2655 29.0022 17.2571H28.9951C26.4979 17.2685 24.0705 18.0822 22.0709 19.5783C20.0714 21.0744 18.6057 23.1735 17.8901 25.5661C17.8213 25.7991 17.6791 26.0037 17.4848 26.1496C17.2904 26.2955 17.0542 26.3748 16.8112 26.3759ZM29.0057 42.9938C26.0233 42.9837 23.1231 42.0151 20.7333 40.2308C18.3434 38.4465 16.5905 35.9412 15.7333 33.0846C15.69 32.9421 15.6754 32.7925 15.6902 32.6444C15.705 32.4963 15.7489 32.3525 15.8195 32.2214C15.8901 32.0903 15.9859 31.9745 16.1014 31.8806C16.2169 31.7867 16.3499 31.7165 16.4926 31.6742C16.6354 31.6319 16.785 31.6182 16.9331 31.634C17.0811 31.6498 17.2246 31.6946 17.3552 31.7661C17.4858 31.8375 17.601 31.9341 17.6942 32.0502C17.7874 32.1663 17.8566 32.2997 17.898 32.4427C18.6138 34.8343 20.0798 36.9323 22.0796 38.4266C24.0793 39.9209 26.5067 40.7324 29.0031 40.7412H29.0101C31.5066 40.7291 33.9332 39.9151 35.932 38.4192C37.9308 36.9234 39.396 34.8249 40.1116 32.4331C40.1904 32.1746 40.3583 31.9523 40.5854 31.8059C40.8126 31.6594 41.0842 31.5981 41.3522 31.6329C41.6207 31.6722 41.8661 31.8067 42.0437 32.0118C42.2213 32.217 42.3191 32.4792 42.3194 32.7505L42.3265 39.7379C42.3265 40.0371 42.2076 40.3241 41.9961 40.5356C41.7845 40.7472 41.4976 40.866 41.1984 40.866C40.8992 40.866 40.6123 40.7472 40.4007 40.5356C40.1891 40.3241 40.0703 40.0371 40.0703 39.7379V37.4519C38.7801 39.1675 37.1103 40.5612 35.1916 41.5239C33.273 42.4866 31.1576 42.9921 29.011 43.0009L29.0057 42.9938Z" fill="#1A55AF"/>
  </g>
  <defs>
    <clipPath id="clip0_448_2859">
      <path fill="#fff" transform="translate(15 15)" d="M0 0H28V28H0z"/>
    </clipPath>
  </defs>
</svg>
