<svg xmlns="http://www.w3.org/2000/svg" fill="none" viewBox="0 0 58 57" class="design-iconfont">
  <rect opacity=".1" width="57.6406" height="57" rx="10" fill="#0A737A"/>
  <path d="M19.3699 29.425H19.3814C19.6149 29.4127 19.8349 29.3104 19.9959 29.1391C20.1568 28.9678 20.2466 28.7407 20.2466 28.5046C20.2466 28.2684 20.1568 28.0413 19.9959 27.8701C19.8349 27.6988 19.6149 27.5965 19.3814 27.5842C18.751 27.5842 18.1445 27.2567 17.6741 26.6633C17.1559 26.0083 16.8712 25.1275 16.8712 24.18C16.8712 23.2342 17.1559 22.35 17.6741 21.6975C18.1445 21.1058 18.7501 20.7775 19.3814 20.7775C19.6166 20.7674 19.8387 20.666 20.0016 20.4944C20.1644 20.3228 20.2553 20.0943 20.2553 19.8567C20.2553 19.619 20.1644 19.3905 20.0016 19.219C19.8387 19.0474 19.6166 18.9459 19.3814 18.9358C18.1849 18.9358 17.0717 19.5092 16.2473 20.5492C15.4733 21.5283 15.0466 22.8183 15.0466 24.18C15.0466 25.5433 15.4733 26.8333 16.2473 27.8133C16.3637 27.9633 16.4907 28.1033 16.6187 28.2317C15.6336 28.7298 14.7701 29.4421 14.0902 30.3175C12.7443 32.0183 12 34.2725 12 36.6583C12.01 36.8958 12.1104 37.1201 12.2804 37.2846C12.4503 37.449 12.6765 37.5408 12.9118 37.5408C13.1472 37.5408 13.3734 37.449 13.5433 37.2846C13.7132 37.1201 13.8137 36.8958 13.8237 36.6583C13.8237 32.67 16.3092 29.425 19.3666 29.425H19.3699ZM42.9178 30.3217C42.2461 29.4733 41.4605 28.8033 40.5825 28.335C40.5165 28.3025 40.4538 28.2692 40.3878 28.2358C40.5214 28.105 40.6452 27.9642 40.7591 27.8158C41.5348 26.8358 41.9606 25.5467 41.9606 24.1842C41.9606 22.8208 41.534 21.5317 40.7607 20.5525C39.9355 19.5133 38.8265 18.94 37.625 18.94C37.3915 18.9523 37.1715 19.0546 37.0106 19.2259C36.8496 19.3972 36.7598 19.6243 36.7598 19.8604C36.7598 20.0966 36.8496 20.3237 37.0106 20.4949C37.1715 20.6662 37.3915 20.7685 37.625 20.7808C38.2571 20.7808 38.8628 21.1083 39.3331 21.7017C39.8514 22.3567 40.1369 23.2375 40.1369 24.185C40.1369 25.1308 39.8514 26.015 39.334 26.6675C38.8628 27.2592 38.2571 27.5875 37.6258 27.5875C37.3907 27.5976 37.1685 27.699 37.0057 27.8706C36.8428 28.0422 36.7519 28.2707 36.7519 28.5083C36.7519 28.746 36.8428 28.9745 37.0057 29.146C37.1685 29.3176 37.3907 29.4191 37.6258 29.4292H37.6415C40.6947 29.4292 43.1827 32.6733 43.1827 36.6633C43.1828 36.9077 43.2789 37.1421 43.4501 37.315C43.6212 37.4878 43.8534 37.5849 44.0954 37.5849C44.3374 37.5849 44.5695 37.4878 44.7407 37.315C44.9118 37.1421 45.008 36.9077 45.0081 36.6633C45.0081 34.2733 44.2637 32.0217 42.9178 30.3217ZM36.8344 30.7333C35.6092 29.495 34.1221 28.5531 32.4848 27.9783C33.3411 27.3704 34.04 26.5635 34.5225 25.6255C35.0051 24.6876 35.2572 23.6462 35.2575 22.5892C35.2551 20.8421 34.5666 19.1672 33.3432 17.932C32.1197 16.6968 30.461 16.002 28.731 16C27.0009 16.0022 25.3423 16.697 24.1187 17.9322C22.8951 19.1674 22.2065 20.8421 22.2036 22.5892C22.2043 23.6429 22.4551 24.6812 22.9351 25.6168C23.4151 26.5525 24.1102 27.3583 24.9623 27.9667C23.3127 28.5408 21.8149 29.4867 20.5829 30.7342C19.5144 31.8053 18.6661 33.0792 18.0868 34.4826C17.5076 35.886 17.2089 37.3912 17.2078 38.9117V40.08C17.2078 40.5883 17.6163 41 18.1197 41H39.3018C39.8052 41 40.2136 40.5875 40.2136 40.0792V38.9075C40.2112 37.3877 39.9116 35.8834 39.3318 34.4809C38.752 33.0784 37.9036 31.8054 36.8353 30.735V30.7333H36.8344ZM24.0265 22.5892C24.0278 21.3299 24.5238 20.1227 25.4057 19.2325C26.2876 18.3422 27.4832 17.8417 28.7301 17.8408C29.9771 17.8417 31.1727 18.3422 32.0546 19.2325C32.9364 20.1227 33.4325 21.3299 33.4338 22.5892C33.4323 23.8482 32.9361 25.0553 32.0543 25.9453C31.1724 26.8354 29.9769 27.3358 28.7301 27.3367C27.4835 27.3351 26.2884 26.8345 25.4067 25.9446C24.525 25.0547 24.0287 23.848 24.0265 22.5892ZM38.3883 39.1583H19.0282V38.9375C19.0381 33.5592 23.3771 29.1842 28.7079 29.1842C34.0354 29.1842 38.3776 33.5592 38.3875 38.9375V39.1583H38.3883Z" fill="#0A7A7A" stroke="#0A7A7A" stroke-width=".4"/>
</svg>
