<svg xmlns="http://www.w3.org/2000/svg" fill="none" viewBox="0 0 58 57" class="design-iconfont">
  <rect opacity=".1" width="57.6406" height="57" rx="10" fill="#427A0A"/>
  <path d="M37.2167 27.3H30.3601C29.7367 27.3 29.2267 26.79 29.2267 26.1667C29.2267 25.5433 29.7367 25.0333 30.3601 25.0333H37.2167C37.84 25.0333 38.35 25.5433 38.35 26.1667C38.35 26.79 37.84 27.3 37.2167 27.3ZM23.4467 28.4333L27.3567 24.6367C27.81 24.1833 27.81 23.5033 27.3567 23.05C26.9034 22.5967 26.2234 22.5967 25.77 23.05L22.6534 26.11L21.0667 24.4667C20.6134 24.0133 19.8767 24.0133 19.48 24.4667C19.0267 24.92 19.0267 25.6567 19.48 26.0533L21.8034 28.3767C22.03 28.6033 22.3134 28.7167 22.5967 28.7167C22.88 28.7167 23.22 28.6033 23.4467 28.4333ZM38.35 35.2333C38.35 34.61 37.84 34.1 37.2167 34.1H30.3601C29.7367 34.1 29.2267 34.61 29.2267 35.2333C29.2267 35.8567 29.7367 36.3667 30.3601 36.3667H37.2167C37.84 36.3667 38.35 35.8567 38.35 35.2333ZM23.4467 37.5L27.3567 33.7033C27.81 33.25 27.81 32.57 27.3567 32.1167C26.9034 31.6633 26.2234 31.6633 25.77 32.1167L22.6534 35.1767L21.0667 33.5333C20.6134 33.08 19.8767 33.08 19.48 33.5333C19.0267 33.9867 19.0267 34.7233 19.48 35.12L21.8034 37.4433C22.03 37.67 22.3134 37.7833 22.5967 37.7833C22.88 37.7833 23.22 37.67 23.4467 37.5ZM35.8 14.8333C35.8 13.2467 34.5534 12 32.9667 12H25.0334C23.4467 12 22.2 13.2467 22.2 14.8333C22.2 16.42 23.4467 17.6667 25.0334 17.6667H32.9667C34.5534 17.6667 35.8 16.42 35.8 14.8333ZM32.9667 14.2667C33.3067 14.2667 33.5334 14.4933 33.5334 14.8333C33.5334 15.1733 33.3067 15.4 32.9667 15.4H25.0334C24.6934 15.4 24.4667 15.1733 24.4667 14.8333C24.4667 14.4933 24.6934 14.2667 25.0334 14.2667H32.9667ZM43.4501 42.6V17.6667C43.4501 15.7967 41.92 14.2667 40.05 14.2667H38.9167C38.2934 14.2667 37.7834 14.7767 37.7834 15.4C37.7834 16.0233 38.2934 16.5333 38.9167 16.5333H40.05C40.6734 16.5333 41.1834 17.0433 41.1834 17.6667V42.6C41.1834 43.2233 40.6734 43.7333 40.05 43.7333H17.95C17.3267 43.7333 16.8167 43.2233 16.8167 42.6V17.6667C16.8167 17.0433 17.3267 16.5333 17.95 16.5333H19.65C20.2734 16.5333 20.7834 16.0233 20.7834 15.4C20.7834 14.7767 20.2734 14.2667 19.65 14.2667H17.95C16.08 14.2667 14.55 15.7967 14.55 17.6667V42.6C14.55 44.47 16.08 46 17.95 46H40.05C41.92 46 43.4501 44.47 43.4501 42.6Z" fill="#427A0A"/>
</svg>
