<svg id="图层_1" data-name="图层 1" xmlns="http://www.w3.org/2000/svg" viewBox="0 0 198 198"><defs><style>.cls-1{fill:#a7abaf;}</style></defs><title>pc原始图标修改合并</title><path class="cls-1" d="M195.52,31H4.07a3,3,0,0,0-3,3V92.52a3,3,0,0,0,3,3H195.52a3,3,0,0,0,3-3V34A3,3,0,0,0,195.52,31ZM33.31,70.33a6,6,0,1,1,6-6A6,6,0,0,1,33.31,70.33Zm139-1H59.5a5,5,0,0,1,0-10.08H172.33a5,5,0,0,1,0,10.08Z"/><path class="cls-1" d="M195.52,108.62H4.07a3,3,0,0,0-3,3v58.47a3,3,0,0,0,3,3H195.52a3,3,0,0,0,3-3V111.62A3,3,0,0,0,195.52,108.62ZM33.31,146.9a6,6,0,1,1,6-6.05A6.05,6.05,0,0,1,33.31,146.9Zm139-1H59.5a5,5,0,1,1,0-10.07H172.33a5,5,0,1,1,0,10.07Z"/></svg>