<svg id="图层_1" data-name="图层 1" xmlns="http://www.w3.org/2000/svg" viewBox="0 0 198 198"><defs><style>.cls-1{fill:#a7abaf;}.cls-2{fill:#f2f2f2;}</style></defs><title>pc原始图标修改合并</title><path class="cls-1" d="M197.29,65.9l-6.91-54A11.67,11.67,0,0,0,179,0H19A11.67,11.67,0,0,0,7.62,11.9L.71,65.9A22.31,22.31,0,0,0,0,71.41C0,84.46,11.08,95,24.75,95S49.5,84.46,49.5,71.41C49.5,84.46,60.58,95,74.25,95S99,84.46,99,71.41C99,84.46,110.08,95,123.75,95S148.5,84.46,148.5,71.41c0,13,11.08,23.63,24.75,23.63S198,84.46,198,71.41A22.31,22.31,0,0,0,197.29,65.9Z"/><path class="cls-1" d="M173.25,106.92a36.39,36.39,0,0,1-24.75-9.68,36.48,36.48,0,0,1-49.5,0,36.48,36.48,0,0,1-49.5,0,36.45,36.45,0,0,1-36.17,7.84v80.75A11.94,11.94,0,0,0,25,198H173a11.94,11.94,0,0,0,11.7-12.17V105.08A36.53,36.53,0,0,1,173.25,106.92Z"/><path class="cls-2" d="M129.94,172.9H68.06a5.26,5.26,0,0,1,0-10.52h61.88a5.26,5.26,0,1,1,0,10.52Z"/></svg>