<svg width="27" height="27" viewBox="0 0 27 27" fill="none" xmlns="http://www.w3.org/2000/svg">
<g id="Group 2234">
<g id="&#229;&#149;&#134;&#229;&#147;&#129; 1">
<path id="Vector" d="M23.781 21.7111L22.5735 10.1306C22.401 9.13009 21.527 8.40559 20.515 8.40559H17.456V6.96809C17.456 4.76009 15.662 2.95459 13.4425 2.95459C11.246 2.95459 9.44049 4.76009 9.44049 6.96809V8.40559H6.39298C5.36948 8.40559 4.50699 9.13009 4.32299 10.1881L3.12699 21.6536C3.02349 22.2631 3.18449 22.8841 3.58699 23.3671C3.98949 23.8386 4.56449 24.1146 5.18549 24.1146H21.711C22.332 24.1146 22.9185 23.8386 23.3095 23.3671C23.712 22.8841 23.8845 22.2631 23.781 21.7111V21.7111ZM10.9815 6.96809C10.9815 5.59959 12.097 4.49559 13.454 4.49559C14.8225 4.49559 15.9265 5.61109 15.9265 6.96809V8.40559H10.9815V6.96809V6.96809ZM22.148 22.3781C22.0905 22.4586 21.941 22.5736 21.7225 22.5736H5.18549C4.95549 22.5736 4.81749 22.4471 4.75999 22.3781C4.70249 22.2976 4.59899 22.1481 4.64499 21.8721L5.84099 10.3951C5.88699 10.1306 6.11698 9.93509 6.39298 9.93509H20.515C20.791 9.93509 21.021 10.1306 21.0555 10.3491L22.263 21.9296C22.309 22.1481 22.2055 22.2976 22.148 22.3781V22.3781ZM11.292 12.7066C11.292 13.3046 10.809 13.7876 10.211 13.7876C9.61298 13.7876 9.12999 13.3046 9.12999 12.7066C9.12999 12.1086 9.61298 11.6256 10.211 11.6256C10.809 11.6256 11.292 12.1086 11.292 12.7066V12.7066ZM17.778 12.7066C17.778 13.3046 17.295 13.7876 16.697 13.7876C16.099 13.7876 15.616 13.3046 15.616 12.7066C15.616 12.1086 16.099 11.6256 16.697 11.6256C17.295 11.6256 17.778 12.1086 17.778 12.7066V12.7066Z" fill="#FA4907"/>
</g>
</g>
</svg>
