<svg width="27" height="27" viewBox="0 0 27 27" fill="none" xmlns="http://www.w3.org/2000/svg">
<g id="Group 2092">
<g id="&#229;&#174;&#162;&#230;&#136;&#183;&#231;&#174;&#161;&#231;&#144;&#134; 2">
<path id="Vector" d="M13.9906 4.98584C14.9352 4.98584 15.8258 5.35381 16.4938 6.02178C17.1617 6.68975 17.5297 7.57803 17.5297 8.5249C17.5297 9.47178 17.1617 10.3601 16.4938 11.028C15.8258 11.696 14.9375 12.064 13.9906 12.064C13.0438 12.064 12.1555 11.696 11.4875 11.028C10.8195 10.3601 10.4516 9.47178 10.4516 8.5249C10.4516 7.57803 10.8195 6.68975 11.4875 6.02178C12.1555 5.35381 13.0461 4.98584 13.9906 4.98584V4.98584ZM13.9906 3.48584C11.2086 3.48584 8.95156 5.74287 8.95156 8.5249C8.95156 11.3069 11.2086 13.564 13.9906 13.564C16.7727 13.564 19.0297 11.3069 19.0297 8.5249C19.0297 5.74287 16.7727 3.48584 13.9906 3.48584V3.48584ZM18.1813 15.5022C19.2406 15.5022 20.2461 15.9593 21.0125 16.7866C21.3969 17.2015 21.7016 17.6866 21.9125 18.228C22.1352 18.7929 22.2477 19.3929 22.2477 20.014V21.4835C22.2477 21.903 22.1 22.2944 21.8305 22.5874C21.6922 22.7374 21.3945 22.9882 20.9656 22.9882H7.07891C6.65 22.9882 6.35234 22.7374 6.21406 22.5874C5.94453 22.2968 5.79688 21.9054 5.79688 21.4858V20.0163C5.79688 19.3976 5.90938 18.7952 6.13203 18.2304C6.34531 17.689 6.64766 17.2038 7.03203 16.789C7.80078 15.9593 8.80625 15.5046 9.86328 15.5046H10.5875L12.7109 17.8015C13.0461 18.1647 13.5242 18.3733 14.0187 18.3733C14.5109 18.3733 14.9867 18.1671 15.3242 17.8038L17.4617 15.5022H18.1813V15.5022ZM18.1813 14.0022H16.932C16.8547 14.0022 16.7797 14.0351 16.7258 14.0913L14.2273 16.7819C14.1711 16.8429 14.0961 16.871 14.0211 16.871C13.9461 16.871 13.8711 16.8405 13.8148 16.7796L11.3281 14.0937C11.2742 14.0351 11.1992 14.0022 11.1219 14.0022H9.86563C6.80234 14.0022 4.29688 16.7093 4.29688 20.0163V21.4858C4.29688 23.1382 5.54844 24.4905 7.07891 24.4905H20.9656C22.4961 24.4905 23.7477 23.1382 23.7477 21.4858V20.0163C23.75 16.7093 21.2445 14.0022 18.1813 14.0022Z" fill="#FA4907"/>
<rect id="Rectangle 5729" x="21" y="7" width="5" height="1.5" rx="0.75" fill="#FA4907"/>
<rect id="Rectangle 5730" x="22" y="10" width="4" height="1.5" rx="0.75" fill="#FA4907"/>
</g>
</g>
</svg>
