<svg xmlns="http://www.w3.org/2000/svg" fill="none" viewBox="0 0 27 27" class="design-iconfont">
  <path d="M7.42107 4.93426C6.65843 4.93426 6.03949 5.55321 6.03949 6.31584V20.6843C6.03949 21.4469 6.65843 22.0658 7.42107 22.0658H19.579C20.3416 22.0658 20.9605 21.4469 20.9605 20.6843V6.31584C20.9605 5.55321 20.3416 4.93426 19.579 4.93426H7.42107ZM7.42107 3.27637H19.579C19.9781 3.27637 20.3734 3.35499 20.7421 3.50773C21.1109 3.66048 21.446 3.88437 21.7282 4.16661C22.0104 4.44885 22.2343 4.78392 22.3871 5.15268C22.5398 5.52145 22.6184 5.91669 22.6184 6.31584V20.6843C22.6184 21.0834 22.5398 21.4787 22.3871 21.8474C22.2343 22.2162 22.0104 22.5513 21.7282 22.8335C21.446 23.1157 21.1109 23.3396 20.7421 23.4924C20.3734 23.6451 19.9781 23.7237 19.579 23.7237H7.42107C7.02192 23.7237 6.62668 23.6451 6.25791 23.4924C5.88914 23.3396 5.55407 23.1157 5.27183 22.8335C4.98959 22.5513 4.76571 22.2162 4.61296 21.8474C4.46021 21.4787 4.38159 21.0834 4.38159 20.6843V6.31584C4.38159 5.91669 4.46021 5.52145 4.61296 5.15268C4.76571 4.78392 4.98959 4.44885 5.27183 4.16661C5.55407 3.88437 5.88914 3.66048 6.25791 3.50773C6.62668 3.35499 7.02192 3.27637 7.42107 3.27637Z" fill="#FA4907"/>
  <path d="M9.35531 9.63159H16.5395C16.6484 9.63157 16.7562 9.653 16.8568 9.69465C16.9574 9.73631 17.0488 9.79736 17.1258 9.87434C17.2028 9.95132 17.2638 10.0427 17.3055 10.1433C17.3472 10.2439 17.3686 10.3517 17.3686 10.4605C17.3686 10.5694 17.3472 10.6772 17.3055 10.7778C17.2638 10.8784 17.2028 10.9698 17.1258 11.0467C17.0488 11.1237 16.9574 11.1848 16.8568 11.2264C16.7562 11.2681 16.6484 11.2895 16.5395 11.2895H9.35531C9.13549 11.2895 8.92467 11.2021 8.76924 11.0466C8.61381 10.8912 8.5265 10.6804 8.5265 10.4605C8.5265 10.2407 8.61381 10.0299 8.76924 9.87443C8.92467 9.71898 9.13549 9.63163 9.35531 9.63159ZM9.35531 14.0526H18.7501C18.9699 14.0526 19.1807 14.14 19.3362 14.2954C19.4917 14.4509 19.579 14.6617 19.579 14.8816C19.579 15.1014 19.4917 15.3123 19.3362 15.4677C19.1807 15.6232 18.9699 15.7105 18.7501 15.7105H9.35531C9.13546 15.7105 8.92462 15.6232 8.76916 15.4677C8.6137 15.3123 8.52637 15.1014 8.52637 14.8816C8.52637 14.6617 8.6137 14.4509 8.76916 14.2954C8.92462 14.14 9.13546 14.0526 9.35531 14.0526Z" fill="#FA4907"/>
</svg>
