<svg xmlns="http://www.w3.org/2000/svg" fill="none" viewBox="0 0 27 27" class="design-iconfont">
  <g clip-path="url(#clip0_448_2894)" fill="#FA4907">
    <path d="M20.8131 22.96H7.18702C6.4181 23.0091 5.65985 22.7599 5.06999 22.2642C4.48013 21.7686 4.10406 21.0646 4.02002 20.2987V8.32263C4.0318 7.92236 4.12375 7.52852 4.29044 7.16442C4.45713 6.80032 4.69516 6.47336 4.99045 6.20288C5.28574 5.93241 5.63229 5.72391 6.00958 5.58974C6.38688 5.45557 6.78726 5.39845 7.18702 5.42176H8.51769C8.69415 5.42176 8.86338 5.49186 8.98815 5.61664C9.11293 5.74141 9.18303 5.91064 9.18303 6.0871V7.25809H18.7905V6.0871C18.7905 5.91064 18.8606 5.74141 18.9854 5.61664C19.1101 5.49186 19.2794 5.42176 19.4558 5.42176H20.7865C21.5767 5.36684 22.3564 5.62727 22.955 6.14603C23.5535 6.66479 23.9222 7.3996 23.9801 8.18956V20.1656C23.9288 20.9554 23.5668 21.6928 22.9733 22.2164C22.3798 22.7401 21.6031 23.0074 20.8131 22.96ZM7.18702 6.75244C6.75428 6.70687 6.32078 6.83132 5.97811 7.0995C5.63545 7.36767 5.41046 7.75856 5.35069 8.18956V20.1656C5.40413 20.6015 5.62643 20.999 5.9698 21.2727C6.31318 21.5464 6.75023 21.6744 7.18702 21.6294H20.8131C21.2302 21.6778 21.6503 21.568 21.9904 21.3216C22.3304 21.0752 22.5656 20.7101 22.6494 20.2987V8.32263C22.5897 7.89163 22.3647 7.50074 22.022 7.23256C21.6793 6.96439 21.2458 6.83994 20.8131 6.8855H20.1345V7.92343C20.1345 8.09989 20.0644 8.26912 19.9396 8.39389C19.8148 8.51867 19.6456 8.58876 19.4691 8.58876H8.531C8.35454 8.58876 8.18531 8.51867 8.06053 8.39389C7.93576 8.26912 7.86566 8.09989 7.86566 7.92343V6.75244H7.18702Z"/>
    <path d="M17.5397 6.75255H10.4605C10.284 6.75255 10.1148 6.68245 9.99004 6.55767C9.86526 6.4329 9.79517 6.26367 9.79517 6.08721C9.79517 5.91075 9.86526 5.74152 9.99004 5.61675C10.1148 5.49197 10.284 5.42188 10.4605 5.42188H17.5397C17.7161 5.42188 17.8854 5.49197 18.0101 5.61675C18.1349 5.74152 18.205 5.91075 18.205 6.08721C18.205 6.26367 18.1349 6.4329 18.0101 6.55767C17.8854 6.68245 17.7161 6.75255 17.5397 6.75255Z"/>
    <path d="M15.9961 6.75249H12.0041C11.8276 6.75249 11.6584 6.6824 11.5336 6.55762C11.4088 6.43285 11.3387 6.26362 11.3387 6.08716V5.12908C11.3387 4.56671 11.5612 4.02718 11.9576 3.62828C12.354 3.22938 12.8921 3.00351 13.4545 3L14.5456 3C14.8252 3 15.1021 3.05507 15.3604 3.16207C15.6187 3.26906 15.8534 3.42589 16.0511 3.62359C16.2488 3.82129 16.4056 4.056 16.5126 4.31431C16.6196 4.57262 16.6747 4.84948 16.6747 5.12908V6.08716C16.6747 6.17566 16.6571 6.26328 16.6228 6.34488C16.5886 6.42649 16.5384 6.50043 16.4752 6.56239C16.412 6.62435 16.337 6.67308 16.2548 6.70572C16.1725 6.73836 16.0846 6.75426 15.9961 6.75249ZM12.6428 5.42182H15.3041V5.12908C15.3041 4.91733 15.22 4.71425 15.0703 4.56452C14.9205 4.41479 14.7175 4.33067 14.5057 4.33067H13.4545C13.2427 4.33067 13.0397 4.41479 12.8899 4.56452C12.7402 4.71425 12.6561 4.91733 12.6561 5.12908L12.6428 5.42182ZM12.4831 18.3826C12.3949 18.3848 12.3071 18.3695 12.2249 18.3375C12.1426 18.3056 12.0676 18.2575 12.0041 18.1963L8.98343 15.1623C8.92107 15.1005 8.87157 15.0269 8.83779 14.9458C8.80401 14.8647 8.78662 14.7778 8.78662 14.69C8.78662 14.6021 8.80401 14.5152 8.83779 14.4341C8.87157 14.353 8.92107 14.2794 8.98343 14.2176C9.11004 14.0948 9.27946 14.0262 9.45581 14.0262C9.63216 14.0262 9.80159 14.0948 9.9282 14.2176L12.4831 16.7858L18.0719 11.1836C18.1985 11.0609 18.368 10.9922 18.5443 10.9922C18.7207 10.9922 18.8901 11.0609 19.0167 11.1836C19.0791 11.2455 19.1286 11.3191 19.1623 11.4001C19.1961 11.4812 19.2135 11.5682 19.2135 11.656C19.2135 11.7439 19.1961 11.8308 19.1623 11.9119C19.1286 11.993 19.0791 12.0666 19.0167 12.1284L12.9488 18.1963C12.8238 18.3168 12.6567 18.3836 12.4831 18.3826Z"/>
  </g>
  <defs>
    <clipPath id="clip0_448_2894">
      <path fill="#fff" transform="translate(4 3)" d="M0 0H20V20H0z"/>
    </clipPath>
  </defs>
</svg>
