<svg xmlns="http://www.w3.org/2000/svg" fill="none" viewBox="0 0 27 27" class="design-iconfont">
  <path d="M14.0329 13.325C13.8336 13.325 13.6344 13.2664 13.4633 13.1515L4.03677 9.09921C3.95005 9.0617 3.87037 9.0078 3.8024 8.93983C3.4063 8.54374 3.40865 7.8992 3.80708 7.50077C3.87974 7.42811 3.9688 7.36952 4.0649 7.33202L13.5313 3.64764C13.8711 3.42264 14.3165 3.4203 14.654 3.64295L23.9329 7.31561C24.029 7.35311 24.1157 7.40936 24.186 7.48202C24.5821 7.87811 24.5797 8.52264 24.1813 8.92108C24.1157 8.9867 24.036 9.04061 23.9493 9.07811L14.6141 13.1422C14.4407 13.264 14.2368 13.325 14.0329 13.325ZM5.85318 8.24608L14.0305 11.7617L22.154 8.22499L14.1008 5.03514L5.85318 8.24608ZM12.5868 24.4812C12.4579 24.4812 12.3243 24.4555 12.1977 24.4039L4.11177 21.0992C3.86099 20.9961 3.66646 20.8039 3.55865 20.5601C3.47662 20.3703 3.45552 20.1617 3.49302 19.9625L3.48365 11C3.48365 10.9015 3.5024 10.8055 3.5399 10.714C3.75318 10.1984 4.34849 9.95233 4.87115 10.1656C4.87583 10.168 4.88287 10.1703 4.88755 10.1726L12.9922 13.7351C13.236 13.8383 13.4258 14.0281 13.5313 14.2695C13.6133 14.4594 13.6344 14.668 13.5969 14.8695L13.5852 23.5719C13.5852 23.6703 13.5665 23.7664 13.529 23.8555C13.3672 24.2469 12.9876 24.4812 12.5868 24.4812ZM4.99537 19.8406L12.0876 22.7375L12.0993 14.9797L4.98599 11.8531L4.99537 19.8406ZM12.4086 15.118C12.411 15.118 12.411 15.118 12.4086 15.118C12.411 15.118 12.411 15.118 12.4086 15.118ZM15.4391 24.4812C15.0383 24.4812 14.6586 24.2445 14.4993 23.8555C14.4618 23.764 14.443 23.668 14.443 23.5695L14.4524 14.818C14.4149 14.6187 14.436 14.4078 14.518 14.2203C14.6235 13.9789 14.8157 13.7891 15.0571 13.6859L23.0704 10.1726C23.0751 10.1703 23.0797 10.168 23.0868 10.1656C23.6071 9.95233 24.2047 10.1984 24.418 10.714C24.4555 10.8031 24.4743 10.9015 24.4743 10.9976L24.486 19.7469C24.5258 19.9461 24.5024 20.157 24.4204 20.3469C24.3149 20.5883 24.1227 20.7781 23.8813 20.8812L15.8469 24.3969C15.8422 24.3992 15.8376 24.4016 15.8305 24.4039C15.7016 24.4578 15.5704 24.4812 15.4391 24.4812ZM15.9524 14.9305L15.943 22.7164L22.9836 19.6344L22.9719 11.8508L15.9524 14.9305Z" fill="#FA4907"/>
</svg>
