<svg xmlns="http://www.w3.org/2000/svg" fill="none" viewBox="0 0 27 27" class="design-iconfont">
  <path d="M18.8825 13.7292H19.0667C19.4412 13.6732 19.7256 13.3483 19.7256 12.9558C19.7256 12.5989 19.4905 12.2979 19.1693 12.2045L19.0258 12.1771H17.8747L19.3686 10.4844L19.3993 10.4479C19.467 10.3541 19.514 10.2407 19.5312 10.1175L19.4965 10.2188C19.5225 10.1455 19.5375 10.0609 19.5375 9.97275C19.5375 9.9677 19.5375 9.96264 19.5374 9.95762L19.5374 9.93232C19.5375 9.92684 19.5376 9.92035 19.5376 9.91385C19.5376 9.82529 19.5225 9.74031 19.4949 9.66146L19.4965 9.63545C19.4322 9.50852 19.3375 9.40557 19.2219 9.33406C19.1064 9.26256 19.3532 9.40629 19.3225 9.39588C19.1804 9.2759 18.9962 9.20313 18.7953 9.20313C18.555 9.20313 18.3387 9.30721 18.1873 9.47346L16.1404 11.7813L14.0941 9.47402C13.9438 9.30641 13.7283 9.20166 13.4888 9.20166C13.2882 9.20166 13.1045 9.27506 12.9622 9.39693L12.9276 9.42715C12.7834 9.56525 12.6936 9.76078 12.6936 9.97768C12.6936 10.1447 12.7469 10.299 12.837 10.424C12.8768 10.5098 12.9317 10.5845 12.9984 10.6461L12.9021 10.5261L14.3806 12.1615H13.2141C12.8288 12.2183 12.536 12.5522 12.536 12.9558C12.536 13.3594 12.8288 13.6934 13.2099 13.7496L15.2963 13.7501V15.1824H13.2142C12.8388 15.2177 12.5431 15.5217 12.5132 15.9021L12.5133 16.0261C12.5452 16.4089 12.8421 16.7117 13.2149 16.745L15.3168 16.7449V18.0626C15.3277 18.176 15.3601 18.2796 15.4098 18.3722L15.3833 18.349C15.4497 18.4813 15.5465 18.5892 15.6646 18.6662L15.5522 18.5782C15.6528 18.6771 15.7792 18.7495 15.9201 18.7838L15.7824 18.7188C15.8716 18.7611 15.9757 18.7872 16.0854 18.7904L16.1814 18.7865C16.2923 18.7746 16.3934 18.7411 16.4835 18.69L16.4628 18.7188C16.5932 18.6508 16.6996 18.5519 16.7755 18.4312L16.6879 18.547C16.7848 18.4451 16.8556 18.3169 16.8892 18.174L16.826 18.3178C16.8675 18.2265 16.8929 18.12 16.8958 18.0077L16.8925 16.7605H18.9952C19.3191 16.729 19.5827 16.498 19.6675 16.1909C19.6825 16.1385 19.6929 16.07 19.694 15.9992L19.6909 15.9896V15.9219C19.6843 15.8494 19.6689 15.7827 19.6458 15.7198C19.5741 15.4707 19.3073 15.2436 18.985 15.2179L16.913 15.2188V13.7292L18.8825 13.7292Z" fill="#FA4907"/>
  <path d="M23.589 20.5104V21.0312C23.589 21.4627 23.2454 21.8125 22.8216 21.8125H8.49709V21.0312C8.49701 20.5998 8.15347 20.2501 7.7297 20.2501C7.30593 20.2501 6.96237 20.5998 6.96232 21.0312V21.8125H4.91595C4.49214 21.8125 4.14856 21.4627 4.14856 21.0312V6.96875C4.14856 6.53729 4.49214 6.1875 4.91595 6.1875H6.96232V6.96875C6.96239 7.40016 7.30593 7.74988 7.7297 7.74988C8.15347 7.74988 8.49703 7.40018 8.49709 6.96875V6.1875H22.8216C23.2454 6.1875 23.589 6.53729 23.589 6.96875V16.3438C23.589 16.7752 23.9326 17.125 24.3564 17.125C24.7802 17.125 25.1238 16.7752 25.1238 16.3438V6.96875C25.1238 5.67434 24.0931 4.625 22.8216 4.625H4.91593C3.64448 4.625 2.61377 5.67434 2.61377 6.96875V21.0312C2.61377 22.3257 3.64448 23.375 4.91593 23.375H22.8216C24.0931 23.375 25.1238 22.3257 25.1238 21.0312V20.5104C25.1238 20.079 24.7802 19.7292 24.3564 19.7292C23.9326 19.7292 23.589 20.079 23.589 20.5104Z" fill="#FA4907"/>
  <path d="M8.49719 10.2551C8.49719 10.2551 8.49719 10.2551 8.49719 10.255C8.49719 9.82354 8.15362 9.47375 7.72981 9.47375C7.306 9.47375 6.96242 9.82354 6.96242 10.255C6.96242 10.255 6.96242 10.2551 6.96242 10.2551V12.0989C6.9625 12.5303 7.30604 12.88 7.72981 12.88C8.15358 12.88 8.49714 12.5303 8.49719 12.0989V10.2551ZM7.72979 15.1198C7.30598 15.1198 6.9624 15.4695 6.9624 15.901V17.7448C6.96248 18.1762 7.30602 18.5259 7.72979 18.5259C8.15356 18.5259 8.49712 18.1762 8.49717 17.7448V15.901C8.49717 15.4695 8.1536 15.1197 7.72979 15.1197V15.1198Z" fill="#FA4907"/>
</svg>
