<svg xmlns="http://www.w3.org/2000/svg" fill="none" viewBox="0 0 27 27" class="design-iconfont">
  <g clip-path="url(#clip0_448_2884)">
    <path d="M23.3835 3.65112C23.781 3.6524 24.1642 3.79917 24.4608 4.06371C24.7575 4.32826 24.947 4.69226 24.9935 5.08698L25.0034 5.27755V21.739C25.0038 22.1368 24.8585 22.521 24.5948 22.8189C24.3311 23.1168 23.9674 23.3077 23.5724 23.3556L23.3835 23.3654H2.71966C2.60489 23.3653 2.49183 23.3376 2.39 23.2846C2.28817 23.2317 2.20055 23.1551 2.13453 23.0612C2.06851 22.9673 2.02601 22.8589 2.01062 22.7452C1.99523 22.6314 2.00739 22.5157 2.04609 22.4076L2.1118 22.268L3.77109 19.6016L2.1118 16.9353C2.05328 16.8405 2.01749 16.7335 2.00723 16.6227C1.99697 16.5118 2.01252 16.4001 2.05266 16.2962L2.1118 16.1763L3.77109 13.5083L2.1118 10.8419C2.05328 10.7472 2.01749 10.6402 2.00723 10.5293C1.99697 10.4184 2.01252 10.3067 2.05266 10.2028L2.1118 10.0829L3.77109 7.41491L2.1118 4.74855C2.05065 4.64918 2.01458 4.53642 2.0067 4.42C1.99882 4.30358 2.01937 4.18699 2.06658 4.08028C2.11379 3.97357 2.18625 3.87995 2.2777 3.80747C2.36914 3.735 2.47685 3.68585 2.59152 3.66427L2.71966 3.65112H23.3835ZM9.3913 21.7226H23.1749C23.257 21.7226 23.326 21.67 23.3523 21.5961L23.3605 21.5369V5.47962C23.3604 5.44057 23.3479 5.40256 23.3249 5.37099C23.3019 5.33943 23.2695 5.31593 23.2324 5.30384L23.1732 5.29398H9.39295V6.92862C9.39291 7.14646 9.30635 7.35536 9.15231 7.50937C8.99826 7.66339 8.78935 7.74992 8.57152 7.74992C8.35369 7.74992 8.14477 7.66339 7.99073 7.50937C7.83668 7.35536 7.75013 7.14646 7.75009 6.92862V5.28577H6.92866V5.29398H4.08652L5.28088 7.19477C5.39588 7.37548 5.41723 7.59727 5.34823 7.79441L5.28088 7.93569L3.64623 10.538L5.28088 13.1386C5.39588 13.3193 5.41723 13.5395 5.34823 13.7366L5.28088 13.8796L3.64623 16.4802L5.28088 19.0808C5.39588 19.2616 5.41723 19.4833 5.34823 19.6788L5.28088 19.8218L4.08652 21.7226H7.10938V21.7143H7.75009V20.0715C7.75007 19.9636 7.77131 19.8568 7.81258 19.7571C7.85385 19.6574 7.91435 19.5668 7.99063 19.4906C8.06691 19.4143 8.15747 19.3537 8.25714 19.3125C8.35681 19.2712 8.46364 19.2499 8.57152 19.2499C8.6794 19.2499 8.78623 19.2712 8.8859 19.3125C8.98557 19.3537 9.07613 19.4143 9.1524 19.4906C9.22868 19.5668 9.28919 19.6574 9.33046 19.7571C9.37173 19.8568 9.39296 19.9636 9.39295 20.0715V21.7209L9.3913 21.7226ZM14.0817 9.11198L16.0137 11.044L17.9473 9.11362C18.0832 8.97755 18.2626 8.89348 18.4541 8.87607C18.6456 8.85866 18.8372 8.909 18.9954 9.01834L19.1104 9.11362C19.2463 9.24974 19.33 9.4292 19.3471 9.62073C19.3643 9.81226 19.3136 10.0037 19.2041 10.1618L19.1088 10.2751L18.0179 11.3643L19.2501 11.366C19.358 11.366 19.4648 11.3872 19.5645 11.4285C19.6642 11.4697 19.7547 11.5302 19.831 11.6065C19.9073 11.6828 19.9678 11.7734 20.0091 11.873C20.0504 11.9727 20.0717 12.0795 20.0717 12.1874C20.0717 12.2953 20.0504 12.4021 20.0091 12.5018C19.9678 12.6015 19.9073 12.692 19.831 12.7683C19.7547 12.8446 19.6642 12.9051 19.5645 12.9463C19.4648 12.9876 19.358 13.0089 19.2501 13.0088L16.7858 13.0056V14.8143H19.2501C19.358 14.8143 19.4648 14.8356 19.5645 14.8768C19.6642 14.9181 19.7547 14.9786 19.831 15.0549C19.9073 15.1312 19.9678 15.2217 20.0091 15.3214C20.0504 15.4211 20.0717 15.5279 20.0717 15.6358C20.0717 15.7437 20.0504 15.8505 20.0091 15.9501C19.9678 16.0498 19.9073 16.1404 19.831 16.2167C19.7547 16.2929 19.6642 16.3534 19.5645 16.3947C19.4648 16.436 19.358 16.4572 19.2501 16.4572H16.7858V19.0447C16.7858 19.1526 16.7646 19.2594 16.7233 19.3591C16.682 19.4588 16.6215 19.5493 16.5453 19.6256C16.469 19.7019 16.3784 19.7624 16.2788 19.8037C16.1791 19.845 16.0723 19.8663 15.9644 19.8663C15.8565 19.8663 15.7497 19.845 15.65 19.8037C15.5503 19.7624 15.4598 19.7019 15.3835 19.6256C15.3072 19.5493 15.2467 19.4588 15.2054 19.3591C15.1642 19.2594 15.1429 19.1526 15.1429 19.0447V16.4572H12.6787C12.4608 16.4572 12.2519 16.3706 12.0979 16.2166C11.9439 16.0625 11.8574 15.8536 11.8574 15.6358C11.8574 15.4179 11.9439 15.209 12.0979 15.055C12.2519 14.9009 12.4608 14.8144 12.6787 14.8143H15.1429V13.0056L12.6787 13.0072C12.4608 13.0072 12.2519 12.9206 12.0979 12.7666C11.9439 12.6125 11.8574 12.4036 11.8574 12.1858C11.8574 11.9679 11.9439 11.759 12.0979 11.605C12.2519 11.4509 12.4608 11.3644 12.6787 11.3643L14.0094 11.3627L12.9185 10.2735C12.7645 10.1192 12.6781 9.91013 12.6782 9.69215C12.6784 9.47417 12.7651 9.26518 12.9193 9.11116C13.0736 8.95713 13.2827 8.87069 13.5007 8.87084C13.7186 8.871 13.9276 8.95774 14.0817 9.11198ZM8.57152 14.3215C8.78937 14.3215 8.99831 14.408 9.15236 14.5621C9.3064 14.7161 9.39295 14.9251 9.39295 15.1429V16.7858C9.39291 17.0036 9.30635 17.2125 9.15231 17.3665C8.99826 17.5205 8.78935 17.6071 8.57152 17.6071C8.35369 17.6071 8.14477 17.5205 7.99073 17.3665C7.83668 17.2125 7.75013 17.0036 7.75009 16.7858V15.1429C7.75009 14.9251 7.83663 14.7161 7.99068 14.5621C8.14473 14.408 8.35366 14.3215 8.57152 14.3215ZM8.57152 9.39291C8.78937 9.39291 8.99831 9.47945 9.15236 9.6335C9.3064 9.78755 9.39295 9.99648 9.39295 10.2143V11.8572C9.39291 12.075 9.30635 12.2839 9.15231 12.4379C8.99826 12.592 8.78935 12.6785 8.57152 12.6785C8.35369 12.6785 8.14477 12.592 7.99073 12.4379C7.83668 12.2839 7.75013 12.075 7.75009 11.8572V10.2143C7.75009 9.99648 7.83663 9.78755 7.99068 9.6335C8.14473 9.47945 8.35366 9.39291 8.57152 9.39291Z" fill="#FA4907"/>
  </g>
  <defs>
    <clipPath id="clip0_448_2884">
      <path fill="#fff" transform="translate(2 2)" d="M0 0H23V23H0z"/>
    </clipPath>
  </defs>
</svg>
