<svg width="27" height="27" viewBox="0 0 27 27" fill="none" xmlns="http://www.w3.org/2000/svg">
<g id="Group 2235">
<g id="3.1&#229;&#186;&#151;&#233;&#147;&#186; 1">
<path id="Vector" d="M23.9727 11.3794C23.975 10.9432 23.9034 10.5056 23.7723 10.1071C23.7708 10.0957 23.7686 10.0852 23.7663 10.0762C23.7573 10.0325 23.7452 9.99029 23.7279 9.94961L21.9622 5.55422C21.6563 4.64274 20.778 4.08379 19.7505 4.08154H7.35671C6.31566 4.08154 5.50664 4.63522 5.21361 5.51052L3.31532 9.99558C3.30628 10.0219 3.29648 10.0611 3.28821 10.101C3.15036 10.5244 3.08105 10.959 3.08105 11.3952C3.0822 12.5516 3.561 13.6319 4.37598 14.4026L4.38122 20.9921C4.38122 22.0542 5.24676 22.9182 6.31114 22.9182L20.4865 22.9092C21.5494 22.9069 22.4142 22.0407 22.4142 20.9778L22.4127 14.6228C23.3896 13.8438 23.9733 12.6551 23.9727 11.3794ZM20.4842 21.4026L6.31114 21.4116C6.07762 21.4116 5.8878 21.2233 5.8878 20.9913L5.88328 15.3049C6.29258 15.4341 6.74177 15.4998 7.22717 15.4998C8.46331 15.4961 9.6083 14.9529 10.3887 14.0234C11.1653 14.9454 12.3013 15.4848 13.5352 15.4923C14.7593 15.4825 15.8922 14.9409 16.6651 14.0196C17.4455 14.9492 18.592 15.49 19.8342 15.49C20.214 15.4881 20.5723 15.4467 20.9063 15.3665L20.9076 20.9785C20.9076 21.212 20.717 21.4018 20.4842 21.4026ZM21.0944 13.698C20.7532 13.8848 20.3276 13.9805 19.8326 13.9835C18.9151 13.9835 18.079 13.5179 17.5909 12.7278C17.5562 12.6532 17.4982 12.5296 17.3897 12.4106C17.2654 12.2713 17.0395 12.1063 16.6673 12.1063C16.3675 12.1063 16.0956 12.2291 15.9419 12.4174C15.8402 12.5319 15.7845 12.6457 15.7446 12.7285C15.2625 13.5089 14.4331 13.979 13.5344 13.9858C12.6244 13.9805 11.7928 13.5119 11.3077 12.7255C11.2738 12.6562 11.2173 12.5394 11.1292 12.4408C10.7751 12.0182 9.98267 12.04 9.67383 12.4084C9.56009 12.5327 9.50058 12.6577 9.46215 12.7428C8.97553 13.5232 8.13863 13.991 7.22565 13.994C6.73902 13.994 6.32246 13.9029 5.98648 13.7236H5.98574C5.98574 13.7236 5.98574 13.7236 5.98499 13.7236C5.12322 13.2649 4.58763 12.373 4.58688 11.3967C4.58688 11.1082 4.6351 10.8174 4.73151 10.5342C4.73828 10.5139 4.7443 10.4912 4.7496 10.4679L6.61926 6.04761C6.65768 5.93461 6.77368 5.59037 7.35521 5.59037H19.7528C19.9916 5.60469 20.4029 5.64686 20.549 6.07699L22.2997 10.4363C22.3065 10.4679 22.3147 10.498 22.3223 10.5229C22.4195 10.8069 22.4677 11.0954 22.4677 11.3816C22.4692 12.3466 21.9426 13.234 21.0944 13.698Z" fill="#FA4907"/>
</g>
</g>
</svg>
