<svg xmlns="http://www.w3.org/2000/svg" fill="none" viewBox="0 0 27 27" class="design-iconfont">
  <path d="M18.4485 12.2422H14.5344C14.5508 12.2422 14.5672 12.2351 14.5836 12.2187L17.354 9.45778C17.6844 9.12731 17.6868 8.59762 17.3563 8.2695C17.0258 7.93903 16.4938 7.94137 16.1633 8.27184L13.9977 10.4398L11.8204 8.26481C11.4899 7.93434 10.9532 7.93903 10.6227 8.2695C10.2922 8.59996 10.2899 9.13668 10.6204 9.46715L13.3907 12.2351C13.4071 12.2515 13.4235 12.275 13.4399 12.275H9.53755C9.09692 12.275 8.73364 12.6429 8.73364 13.0836V13.1609C8.73364 13.6015 9.09692 13.9531 9.53755 13.9531H13.1563V15.4531H10.2852C9.84458 15.4531 9.50005 15.8351 9.50005 16.2757V16.3695C9.50005 16.8101 9.84458 17.1406 10.2852 17.1406H13.1563V20.6375C13.1563 21.1039 13.5336 21.4812 14 21.4812C14.4665 21.4812 14.8438 21.1039 14.8438 20.6375V17.1406H17.6985C18.1391 17.1406 18.5235 16.8101 18.5235 16.3695V16.2757C18.5235 15.8351 18.1391 15.4531 17.6985 15.4531H14.8438V13.9531H18.4485C18.8891 13.9531 19.2735 13.6203 19.2735 13.1773V13.0836C19.2735 12.6429 18.8891 12.2422 18.4485 12.2422Z" fill="#FA4907"/>
  <path d="M14 2C7.37422 2 2 7.37422 2 14C2 20.6258 7.37422 26 14 26C20.6258 26 26 20.6258 26 14C26 7.37422 20.6258 2 14 2ZM21.2914 21.2914C20.3445 22.2383 19.2406 22.9836 18.0125 23.5016C16.7422 24.0406 15.3922 24.3125 14 24.3125C12.6078 24.3125 11.2578 24.0406 9.9875 23.5016C8.75937 22.9813 7.65547 22.2383 6.70859 21.2914C5.76172 20.3445 5.01641 19.2406 4.49844 18.0125C3.95937 16.7422 3.6875 15.3922 3.6875 14C3.6875 12.6078 3.95937 11.2578 4.49844 9.9875C5.01875 8.75937 5.76172 7.65547 6.70859 6.70859C7.65547 5.76172 8.75937 5.01641 9.9875 4.49844C11.2578 3.95937 12.6078 3.6875 14 3.6875C15.3922 3.6875 16.7422 3.95937 18.0125 4.49844C19.2406 5.01875 20.3445 5.76172 21.2914 6.70859C22.2383 7.65547 22.9836 8.75937 23.5016 9.9875C24.0406 11.2578 24.3125 12.6078 24.3125 14C24.3125 15.3922 24.0406 16.7422 23.5016 18.0125C22.9836 19.2406 22.2406 20.3445 21.2914 21.2914Z" fill="#FA4907"/>
</svg>
