<svg id="图层_1" data-name="图层 1" xmlns="http://www.w3.org/2000/svg" viewBox="0 0 198 198"><defs><style>.cls-1{fill:#a7abaf;}</style></defs><title>pc原始图标修改合并</title><path class="cls-1" d="M62.64,101.31a51.52,51.52,0,0,1-5-68.29,32.53,32.53,0,0,0-8.76,63.34A61.23,61.23,0,0,0,1.72,135.75a7.82,7.82,0,0,0,7.36,10.48h8.56A88.9,88.9,0,0,1,62.64,101.31Z"/><path class="cls-1" d="M196.28,135.75a61.23,61.23,0,0,0-47.15-39.39A32.53,32.53,0,0,0,140.37,33a51.52,51.52,0,0,1-5,68.29,88.9,88.9,0,0,1,45,44.92h8.56A7.82,7.82,0,0,0,196.28,135.75Z"/><path class="cls-1" d="M173.88,155.3a79.32,79.32,0,0,0-61.08-51A42.15,42.15,0,0,0,99.39,22.16l-.39,0-.39,0A42.15,42.15,0,0,0,85.2,104.27a79.32,79.32,0,0,0-61.08,51,10.14,10.14,0,0,0,9.53,13.58h130.7A10.14,10.14,0,0,0,173.88,155.3ZM82.26,77.48a4.72,4.72,0,0,1,7.43-5.82c1.8,2.3,5.46,3.79,9.31,3.79s7.51-1.49,9.31-3.79a4.72,4.72,0,1,1,7.43,5.83c-3.64,4.63-9.89,7.4-16.74,7.4S85.89,82.12,82.26,77.48Z"/></svg>