<svg id="图层_1" data-name="图层 1" xmlns="http://www.w3.org/2000/svg" viewBox="0 0 198 198"><defs><style>.cls-1{fill:#a7abaf;}</style></defs><title>pc原始图标修改合并</title><path class="cls-1" d="M99,63.16h0a24.65,24.65,0,0,0-6,.76A23.33,23.33,0,0,0,76.13,80.78,23.65,23.65,0,0,0,99,110.43a24.17,24.17,0,0,0,6-.76,23.33,23.33,0,0,0,16.85-16.85A23.65,23.65,0,0,0,99,63.16Zm11,26.63a11.12,11.12,0,0,1-8,8,12,12,0,0,1-3,.38A11.4,11.4,0,0,1,88,83.8a11.12,11.12,0,0,1,8-8,12,12,0,0,1,3-.38A11.4,11.4,0,0,1,110,89.79Z"/><path class="cls-1" d="M194,23H4a3,3,0,0,0-3,3V154a3,3,0,0,0,3,3H194a3,3,0,0,0,3-3V26A3,3,0,0,0,194,23Zm-58.76,86.89a.19.19,0,0,1-.28,0l0,0a8.65,8.65,0,1,0-12.23,12.23l.17.14a.17.17,0,0,1,0,.28,42.56,42.56,0,0,1-15,6.32.17.17,0,0,1-.21-.19c0-.11,0-.21,0-.31a8.65,8.65,0,0,0-17.3,0c0,.1,0,.2,0,.31a.17.17,0,0,1-.21.19,42.56,42.56,0,0,1-15-6.32.17.17,0,0,1,0-.28l.17-.14a8.65,8.65,0,1,0-12.23-12.23l0,0a.19.19,0,0,1-.28,0,42.78,42.78,0,0,1-5.95-14.84.18.18,0,0,1,.19-.21,7.22,7.22,0,0,0,6.85-3.33c4.18-6.73-.36-13.68-6.64-14a.17.17,0,0,1-.17-.21A42.9,42.9,0,0,1,63.23,62.9a.17.17,0,0,1,.26,0,8.61,8.61,0,0,0,12.28-12,.17.17,0,0,1,0-.26,42.58,42.58,0,0,1,14.41-5.92.18.18,0,0,1,.21.16,8.6,8.6,0,0,0,17.14,0,.18.18,0,0,1,.21-.16,42.58,42.58,0,0,1,14.41,5.92.17.17,0,0,1,0,.26,8.61,8.61,0,0,0,12.28,12,.17.17,0,0,1,.26,0A42.9,42.9,0,0,1,141,77.38a.17.17,0,0,1-.17.21c-6.28.28-10.82,7.23-6.64,14A7.22,7.22,0,0,0,141,94.88h0a.18.18,0,0,1,.19.21A42.78,42.78,0,0,1,135.24,109.93Z"/><path class="cls-1" d="M147.73,180.06H50.27a5.1,5.1,0,1,1,0-10.2h97.46a5.1,5.1,0,1,1,0,10.2Z"/></svg>