<svg width="58" height="58" viewBox="0 0 58 58" fill="none" xmlns="http://www.w3.org/2000/svg">
<g id="Group 2233">
<rect id="Rectangle 1022" x="0.5" y="0.5" width="57" height="57" rx="5.5" fill="white" stroke="#EEEEEE"/>
<g id="&#230;&#151;&#182;&#233;&#151;&#180; 1">
<path id="Vector" d="M29.2821 16.55C36.7821 16.55 42.8661 22.634 42.8661 30.134C42.8661 37.634 36.7821 43.718 29.2821 43.718C21.7821 43.718 15.6981 37.634 15.6981 30.134C15.6981 22.628 21.7821 16.55 29.2821 16.55V16.55ZM29.2821 22.772H28.1481C27.5541 22.772 27.0621 23.234 27.0201 23.822L27.0141 23.906V31.832C27.0141 32.372 27.3921 32.822 27.8901 32.936C27.9981 33.41 28.4061 33.77 28.8981 33.812H34.0941C34.6881 33.812 35.1801 33.35 35.2221 32.762L35.2281 32.678V31.544C35.2281 30.95 34.7661 30.458 34.1781 30.416L34.0941 30.41H30.4161V23.906C30.4161 23.312 29.9541 22.82 29.3661 22.778L29.2821 22.772ZM21.7341 15.512C22.0701 16.04 21.9201 16.736 21.3921 17.078C19.2021 18.482 17.3841 20.438 16.1241 22.748C15.8241 23.294 15.1401 23.498 14.5881 23.198C14.0361 22.898 13.8381 22.214 14.1381 21.662C15.5781 19.016 17.66 16.784 20.1681 15.17C20.6961 14.834 21.3981 14.99 21.7341 15.512V15.512ZM37.6041 14.414C40.0521 15.698 42.1701 17.558 43.7901 19.826C44.1561 20.336 44.0361 21.044 43.5261 21.404C43.0161 21.77 42.3081 21.65 41.9481 21.14C40.5321 19.16 38.6841 17.534 36.5481 16.412C36.2823 16.2719 36.0831 16.0321 35.9943 15.7452C35.9054 15.4582 35.9341 15.1478 36.0741 14.882C36.3621 14.336 37.0461 14.12 37.6041 14.414Z" fill="#50C26A"/>
</g>
</g>
</svg>
