<svg width="26" height="26" viewBox="0 0 26 26" fill="none" xmlns="http://www.w3.org/2000/svg">
<g id="Group 955">
<path id="Vector" d="M19.6711 0.505889L25.4298 5.30964L23.8286 7.22964L18.0686 2.42589L19.6711 0.505889ZM6.32858 0.505889L7.93108 2.42339L2.17107 7.22964L0.569824 5.30964L6.32858 0.504639V0.505889ZM12.9998 3.24089C11.5224 3.24097 10.0594 3.53206 8.69445 4.09753C7.32949 4.663 6.08927 5.49179 5.04462 6.53656C3.99996 7.58134 3.17131 8.82164 2.60599 10.1867C2.04067 11.5517 1.74974 13.0147 1.74982 14.4921C1.74991 15.9696 2.04099 17.4326 2.60647 18.7975C3.17194 20.1625 4.00072 21.4027 5.0455 22.4473C6.09027 23.492 7.33058 24.3207 8.6956 24.886C10.0606 25.4513 11.5236 25.7422 13.0011 25.7421C15.9849 25.7421 18.8466 24.5568 20.9565 22.4469C23.0664 20.337 24.2517 17.4754 24.2517 14.4915C24.2517 11.5077 23.0664 8.64602 20.9565 6.53612C18.8466 4.42622 15.9849 3.24089 13.0011 3.24089H12.9998ZM13.0011 23.6234C8.17608 23.6234 3.5 19.3165 3.5 14.4915C3.5 9.66651 8.175 5.12341 13 5.12341C17.825 5.12341 22 9.66714 22 14.4921C22 19.3171 17.8261 23.6234 13.0011 23.6234ZM11.7498 8.12339H14.2498V15.6234H11.7498V8.12339ZM11.7498 18.1234H14.2498V20.6234H11.7498V18.1234Z" fill="currentColor"/>
</g>
</svg>
