<svg xmlns="http://www.w3.org/2000/svg" fill="none" viewBox="0 0 58 57" class="design-iconfont">
  <rect opacity=".1" width="57.6406" height="57" rx="10" fill="#5843BE"/>
  <path d="M28.5558 45.5447C27.8181 45.5447 27.22 44.9422 27.22 44.1972C27.22 43.4522 27.8181 42.8496 28.5558 42.8496C29.4188 42.8496 30.2806 42.7733 31.1207 42.6247C31.4833 42.5601 31.8394 42.4838 32.1904 42.3919C32.8959 42.2076 33.6329 42.6407 33.8171 43.3614C34.0009 44.081 33.5704 44.8166 32.856 45.0024C32.4353 45.1109 32.0107 45.203 31.583 45.2786C30.5924 45.4551 29.5739 45.5447 28.5558 45.5447ZM36.2416 43.5684C35.7696 43.5684 35.3115 43.3156 35.0691 42.8673C34.7142 42.2146 34.9516 41.3961 35.6001 41.0396C36.6753 40.4453 37.6729 39.7182 38.5699 38.8751C39.1087 38.3673 39.9527 38.3962 40.4573 38.9424C40.9607 39.4871 40.9309 40.3396 40.3906 40.8463C39.3309 41.843 38.1517 42.7018 36.8804 43.4029C36.6848 43.5117 36.465 43.5686 36.2416 43.5684ZM42.0421 38.1157C41.7862 38.1157 41.5357 38.0413 41.3207 37.9013C40.6997 37.4986 40.5213 36.6644 40.9204 36.0396C41.5856 34.9976 42.1165 33.8778 42.4998 32.7107C42.7305 32.004 43.4857 31.6253 44.1877 31.8553C44.8882 32.0897 45.2675 32.8515 45.0356 33.5582C44.5799 34.9456 43.9519 36.2692 43.1665 37.4975C42.9105 37.8973 42.4815 38.1157 42.0421 38.1157ZM44.5438 30.5274C44.5124 30.5274 44.4813 30.5262 44.4499 30.5246C43.7141 30.4734 43.1587 29.8286 43.2095 29.0871C43.2344 28.7358 43.246 28.3817 43.2476 28.024C43.2476 27.1417 43.1692 26.2543 43.0168 25.3912C42.8865 24.6583 43.3701 23.9584 44.0966 23.8273C44.8258 23.6982 45.5158 24.1837 45.6461 24.9162C45.8272 25.9358 45.9188 26.9833 45.9188 28.0287C45.9176 28.4505 45.9032 28.8637 45.8757 29.273C45.8257 29.9839 45.2388 30.5274 44.5438 30.5274ZM43.1378 22.6539C42.6305 22.6539 42.1464 22.3624 41.9222 21.867C41.5591 21.0671 41.1257 20.3016 40.6272 19.5796C40.2059 18.9685 40.356 18.1288 40.9611 17.7039C41.5662 17.2794 42.3997 17.4288 42.8209 18.04C43.4096 18.8944 43.9217 19.8 44.351 20.746C44.6574 21.4225 44.3627 22.2223 43.6924 22.5314C43.5184 22.612 43.3293 22.6538 43.1378 22.6539Z" fill="#5843BE"/>
  <path d="M28.5558 45.5447C18.9814 45.5447 11.1924 37.6868 11.1924 28.0287C11.1924 18.3702 18.9814 10.5127 28.5558 10.5127C32.6481 10.5127 36.6225 11.9772 39.7463 14.6359C40.311 15.1156 40.3816 15.9654 39.9069 16.5347C39.431 17.1017 38.5882 17.1768 38.0246 16.6952C35.3821 14.4465 32.0182 13.2078 28.5558 13.2078C20.4545 13.2078 13.8636 19.8566 13.8636 28.0291C13.8636 36.2015 20.4545 42.8504 28.5558 42.8504C29.4187 42.8504 30.2806 42.7741 31.1207 42.6254C31.846 42.4884 32.5399 42.9846 32.6675 43.7174C32.7966 44.4503 32.3114 45.1491 31.5849 45.2778C30.5924 45.4551 29.5739 45.5447 28.5558 45.5447Z" fill="#5843BE"/>
  <path d="M28.541 18.5972C29.2787 18.5972 29.8768 19.2005 29.8768 19.9447V28.0291C29.8768 28.7733 29.2787 29.3767 28.541 29.3767C27.8033 29.3767 27.2052 28.7733 27.2052 28.0291V19.9443C27.2052 19.2005 27.8033 18.5972 28.541 18.5972Z" fill="#5843BE"/>
  <path d="M36.816 32.8479C36.4471 33.4924 35.6303 33.713 34.9915 33.3409L28.0511 29.2991C27.4123 28.927 27.1935 28.103 27.5624 27.4586C27.9313 26.8142 28.7481 26.5935 29.3869 26.9656L36.3269 31.0078C36.9657 31.3795 37.1845 32.2035 36.816 32.8479Z" fill="#5843BE"/>
</svg>
