<svg id="图层_1" data-name="图层 1" xmlns="http://www.w3.org/2000/svg" viewBox="0 0 198 198"><defs><style>.cls-1,.cls-2{fill:#a7abaf;}.cls-2{fill-rule:evenodd;}</style></defs><title>pc原始图标修改合并</title><rect class="cls-1" x="65.61" y="14.24" width="66.78" height="42.96" rx="4.51"/><circle class="cls-1" cx="99" cy="103.47" r="15.12"/><path class="cls-2" d="M88.7,92.42h20.6a15.07,15.07,0,0,0-20.6,0Z"/><path class="cls-2" d="M198,44.16a3,3,0,0,0-3-3H3a3,3,0,0,0-3,3V190.81H198V105.06H126.71a27.76,27.76,0,0,1-55.42,0H0V92.42H73.54a27.75,27.75,0,0,1,50.92,0H198Z"/><path class="cls-2" d="M99,118.59a15.13,15.13,0,0,0,15-13.53H84A15.13,15.13,0,0,0,99,118.59Z"/></svg>