<svg width="25" height="25" viewBox="0 0 25 25" fill="none" xmlns="http://www.w3.org/2000/svg">
<g id="Group 147">
<path id="Vector" d="M12.4721 24.4871C12.4452 24.4871 12.42 24.4871 12.3931 24.4853C11.8646 24.4638 11.3631 24.2193 11.0162 23.8185L9.03552 21.5268C8.9017 21.3712 8.73598 21.2462 8.54959 21.1603C8.3632 21.0744 8.16051 21.0296 7.95528 21.0289H3.60019C1.61586 21.0289 0 19.3987 0 17.3946V3.75775C0 1.75365 1.61586 0.123413 3.60019 0.123413H21.3998C23.3841 0.123413 25 1.75365 25 3.75775V17.3928C25 19.3969 23.3841 21.0271 21.3998 21.0271H17.37C16.9962 21.0271 16.6421 21.1727 16.3725 21.4369L13.8184 23.9371C13.4589 24.2894 12.9718 24.4871 12.4721 24.4871V24.4871ZM3.60019 2.28029C2.80394 2.28029 2.15688 2.94353 2.15688 3.75775V17.3928C2.15688 18.2088 2.80394 18.8703 3.60019 18.8703H7.95528C8.99597 18.8703 9.98454 19.325 10.6676 20.1159L12.4883 22.2224L14.8663 19.8948C15.5421 19.2333 16.4318 18.8703 17.3718 18.8703H21.4016C22.1979 18.8703 22.8449 18.207 22.8449 17.3928V3.75775C22.8449 2.94173 22.1979 2.28029 21.4016 2.28029H3.60019Z" fill="currentColor"/>
<path id="Vector_2" d="M13.5779 13.7117H11.4211V13.0898C11.4211 11.8639 12.1472 10.7693 13.2706 10.3002C13.6555 10.1389 13.9806 9.8616 14.2006 9.50692C14.4207 9.15225 14.5247 8.73782 14.4982 8.32128C14.4371 7.33451 13.6157 6.5131 12.6289 6.45198C12.0681 6.41783 11.5343 6.60836 11.1281 6.9912C10.7201 7.37405 10.4972 7.8917 10.4972 8.45069H8.34033C8.34033 7.30755 8.81844 6.20215 9.65063 5.41848C10.4954 4.62403 11.6044 4.22681 12.7619 4.2987C14.8487 4.42811 16.5203 6.09969 16.6497 8.18647C16.7593 9.95871 15.7348 11.6069 14.0992 12.2899C13.7811 12.4229 13.5761 12.7357 13.5761 13.0898V13.7117H13.5779Z" fill="currentColor"/>
<path id="Vector_3" d="M11.3213 16.4923C11.3213 16.8045 11.4453 17.104 11.6661 17.3248C11.8869 17.5456 12.1863 17.6696 12.4986 17.6696C12.8108 17.6696 13.1103 17.5456 13.3311 17.3248C13.5518 17.104 13.6759 16.8045 13.6759 16.4923C13.6759 16.1801 13.5518 15.8806 13.3311 15.6598C13.1103 15.439 12.8108 15.315 12.4986 15.315C12.1863 15.315 11.8869 15.439 11.6661 15.6598C11.4453 15.8806 11.3213 16.1801 11.3213 16.4923V16.4923Z" fill="currentColor"/>
</g>
</svg>
