<svg id="图层_1" data-name="图层 1" xmlns="http://www.w3.org/2000/svg" viewBox="0 0 198 198"><defs><style>.cls-1{fill:#a7abaf;fill-rule:evenodd;}</style></defs><title>pc原始图标修改合并</title><path id="营销中心" class="cls-1" d="M148.23,178.31H49.77a5.16,5.16,0,0,1,0-10.32h98.5a5.16,5.16,0,0,1,0,10.32Zm37.4-158.62H12.37A12.37,12.37,0,0,0,0,32.06v110.6A12.37,12.37,0,0,0,12.37,155H185.63A12.37,12.37,0,0,0,198,142.66V32.06A12.37,12.37,0,0,0,185.63,19.69ZM102.2,92.37c-1.46-1.7-3.26-4.07-5.32-6.17-2.66-2.69-5.58-2.68-8.26,0Q73,101.74,57.45,117.36c-2.35,2.35-2.78,5-.49,7.44,2.44,2.68,5.26,2.59,7.81.09q8.33-8.13,16.5-16.42c3.76-3.81,7.4-7.75,11.39-12,2.06,2.22,3.36,3.72,4.75,5.11,5.07,5.07,6.77,5.07,11.84,0q13.34-13.29,26.63-26.59c1.2-1.2,2.45-2.35,4.68-4.48,0,3.74-.05,6,0,8.25.07,3.35,1.82,5.38,5.16,5.37s5.17-1.94,5.19-5.34c0-6.93.05-13.86,0-20.78,0-3.6-2-5.5-5.56-5.53q-10.41-.08-20.81,0c-3.33,0-5.37,1.7-5.42,5.09s1.93,5.13,5.26,5.26c2.4.1,4.81,0,7.32,0Z"/></svg>